<svg xmlns="http://www.w3.org/2000/svg" width="432.94" height="218.44" viewBox="0 0 432.94 218.44"><defs><style>.a{fill:#3f3d56;}.b{fill:#009530;}.c{fill:#fff;}.d{opacity:0.2;}</style></defs><g transform="translate(0 -29.87)"><path class="a" d="M249.461,638.776h-.975a45.817,45.817,0,0,0-91.633,0h-.975a46.791,46.791,0,1,1,93.583,0Z" transform="translate(-155.878 -390.969)"/><path class="a" d="M945.463,638.776h-.975a45.817,45.817,0,1,0-91.633,0h-.975a46.792,46.792,0,0,1,93.583,0Z" transform="translate(-512.641 -390.969)"/><path class="a" d="M630.5,369.794h-.975a83.835,83.835,0,1,0-167.669,0h-.975a84.81,84.81,0,0,1,169.619,0Z" transform="translate(-312.218 -233.605)"/><path class="a" d="M153.891,269.958l33.076-39.391H252l39.741,38.708-.8.516h.287V350.3H153.936V269.791Z" transform="translate(-78.883 -102.875)"/><rect class="a" width="7.498" height="25.954" transform="translate(102.406 149.957) rotate(180)"/><path class="b" d="M186.5,229.508l40.772,47.8v72.452H153.984V268.216Z" transform="translate(-78.93 -102.332)"/><rect class="a" width="14.967" height="15.304" transform="translate(123.952 184.464)"/><rect class="a" width="14.967" height="15.304" transform="translate(123.952 205.288)"/><rect class="c" width="14.967" height="15.304" transform="translate(123.952 184.464)"/><rect class="c" width="14.967" height="15.304" transform="translate(123.952 205.288)"/><rect class="a" width="14.967" height="15.304" transform="translate(103.252 184.464)"/><rect class="a" width="14.967" height="15.304" transform="translate(103.252 205.288)"/><rect class="c" width="14.967" height="15.304" transform="translate(103.252 184.464)"/><rect class="c" width="14.967" height="15.304" transform="translate(103.252 205.288)"/><rect class="a" width="14.967" height="15.304" transform="translate(82.552 184.464)"/><rect class="a" width="14.967" height="15.304" transform="translate(82.552 205.288)"/><rect class="c" width="14.967" height="15.304" transform="translate(82.552 184.464)"/><rect class="c" width="14.967" height="15.304" transform="translate(82.552 205.288)"/><rect class="b" width="6.824" height="17.059" transform="translate(236.394 34.807)"/><rect class="b" width="58.002" height="197.402" transform="translate(184.729 50.404)"/><rect class="a" width="23.396" height="197.402" transform="translate(242.731 50.404)"/><rect class="c" width="8.773" height="8.773" transform="translate(195.208 67.464)"/><rect class="c" width="8.773" height="8.773" transform="translate(209.343 67.464)"/><rect class="c" width="8.773" height="8.773" transform="translate(223.478 67.464)"/><rect class="c" width="8.773" height="8.773" transform="translate(195.452 87.448)"/><rect class="c" width="8.773" height="8.773" transform="translate(209.587 87.448)"/><rect class="c" width="8.773" height="8.773" transform="translate(223.722 87.448)"/><rect class="c" width="8.773" height="8.773" transform="translate(195.696 107.431)"/><rect class="c" width="8.773" height="8.773" transform="translate(209.831 107.431)"/><rect class="c" width="8.773" height="8.773" transform="translate(223.965 107.431)"/><rect class="c" width="8.773" height="8.773" transform="translate(195.939 127.415)"/><rect class="c" width="8.773" height="8.773" transform="translate(210.074 127.415)"/><rect class="c" width="8.773" height="8.773" transform="translate(224.209 127.415)"/><rect class="c" width="8.773" height="8.773" transform="translate(196.183 147.399)"/><rect class="c" width="8.773" height="8.773" transform="translate(210.318 147.399)"/><rect class="c" width="8.773" height="8.773" transform="translate(224.453 147.399)"/><rect class="c" width="8.773" height="8.773" transform="translate(196.427 167.383)"/><rect class="c" width="8.773" height="8.773" transform="translate(210.562 167.383)"/><rect class="c" width="8.773" height="8.773" transform="translate(224.697 167.383)"/><rect class="c" width="8.773" height="8.773" transform="translate(196.67 187.367)"/><rect class="c" width="8.773" height="8.773" transform="translate(210.805 187.367)"/><rect class="c" width="8.773" height="8.773" transform="translate(224.94 187.367)"/><rect class="c" width="8.773" height="8.773" transform="translate(196.914 207.351)"/><rect class="c" width="8.773" height="8.773" transform="translate(211.049 207.351)"/><rect class="c" width="8.773" height="16.572" transform="translate(211.049 230.747)"/><rect class="c" width="8.773" height="8.773" transform="translate(225.184 207.351)"/><rect class="a" width="3.899" height="16.572" transform="translate(242.731 34.807)"/><rect class="b" width="6.824" height="10.111" transform="translate(309.506 121.566)"/><rect class="b" width="58.002" height="116.995" transform="translate(257.84 130.811)"/><rect class="a" width="23.396" height="116.995" transform="translate(315.842 130.811)"/><rect class="c" width="8.773" height="8.773" transform="translate(269.295 147.399)"/><rect class="c" width="8.773" height="8.773" transform="translate(283.43 147.399)"/><rect class="c" width="8.773" height="8.773" transform="translate(297.565 147.399)"/><rect class="c" width="8.773" height="8.773" transform="translate(269.538 167.383)"/><rect class="c" width="8.773" height="8.773" transform="translate(283.673 167.383)"/><rect class="c" width="8.773" height="8.773" transform="translate(297.808 167.383)"/><rect class="c" width="8.773" height="8.773" transform="translate(269.782 187.367)"/><rect class="c" width="8.773" height="8.773" transform="translate(283.917 187.367)"/><rect class="c" width="8.773" height="8.773" transform="translate(298.052 187.367)"/><rect class="c" width="8.773" height="8.773" transform="translate(270.026 207.351)"/><rect class="c" width="8.773" height="8.773" transform="translate(284.161 207.351)"/><rect class="c" width="8.773" height="16.572" transform="translate(284.161 230.747)"/><rect class="c" width="8.773" height="8.773" transform="translate(298.296 207.351)"/><rect class="a" width="3.899" height="9.822" transform="translate(315.842 121.566)"/><rect class="a" width="432.821" height="1.092" transform="translate(0.119 247.217)"/><circle class="b" cx="12.692" cy="12.692" r="12.692" transform="translate(344.414 199.552)"/><path class="d" d="M885.666,597.631a12.693,12.693,0,0,1-21.149,13.434,12.694,12.694,0,1,0,21.149-13.433Z" transform="translate(-519.118 -393.864)"/><path class="a" d="M732.034,404.041h.035l.627,35.985h-1.325Z" transform="translate(-374.893 -191.796)"/><rect class="a" width="0.628" height="2.371" transform="translate(359.16 231.291) rotate(62.234)"/><circle class="b" cx="19.301" cy="19.301" r="19.301" transform="translate(375.121 174.207)"/><path class="d" d="M960.73,550.134a19.3,19.3,0,0,1-32.161,20.428,19.3,19.3,0,1,0,32.161-20.428Z" transform="translate(-551.951 -369.517)"/><path class="a" d="M808.267,365.6h.053l.954,54.722H807.26Z" transform="translate(-413.792 -172.091)"/><rect class="a" width="0.954" height="3.606" transform="translate(397.545 222.471) rotate(62.234)"/><circle class="b" cx="12.692" cy="12.692" r="12.692" transform="translate(0.302 199.065)"/><path class="d" d="M179.666,596.631a12.693,12.693,0,0,1-21.149,13.434,12.694,12.694,0,1,0,21.149-13.433Z" transform="translate(-157.231 -393.351)"/><path class="a" d="M26.034,403.041h.035l.627,35.985H25.372Z" transform="translate(-13.005 -191.284)"/><rect class="a" width="0.628" height="2.371" transform="translate(15.047 230.803) rotate(62.234)"/><path class="a" d="M755.24,244.492l4.487-3.589c-3.486-.385-4.918,1.516-5.5,3.021a7.643,7.643,0,0,0-5.688.351l8.978,3.259a6.793,6.793,0,0,0-2.273-3.043Z" transform="translate(-459.667 -210.984)"/><path class="a" d="M895.24,319.492l4.487-3.589c-3.486-.385-4.918,1.516-5.5,3.021a7.643,7.643,0,0,0-5.688.351l8.978,3.259A6.793,6.793,0,0,0,895.24,319.492Z" transform="translate(-531.43 -249.428)"/><path class="a" d="M386.24,341.492l4.487-3.589c-3.486-.385-4.918,1.516-5.5,3.021a7.643,7.643,0,0,0-5.688.351l8.978,3.259a6.794,6.794,0,0,0-2.273-3.043Z" transform="translate(-270.522 -260.705)"/><path class="a" d="M744.24,383.492l4.487-3.589c-3.486-.385-4.918,1.516-5.5,3.021a7.643,7.643,0,0,0-5.688.351l8.978,3.259A6.793,6.793,0,0,0,744.24,383.492Z" transform="translate(-454.029 -282.233)"/><path class="a" d="M74.219,456H44v.975h4.713v9.261h.975v-9.261H68.044v9.261h.975v-9.261h5.2Z" transform="translate(-22.554 -218.43)"/><path class="a" d="M308.475,673.96a6.784,6.784,0,0,0-3.4.912,7.3,7.3,0,0,0-12.2,5.425h22.4A6.819,6.819,0,0,0,308.475,673.96Z" transform="translate(-226.103 -432.49)"/><path class="a" d="M545.475,673.96a6.785,6.785,0,0,0-3.4.912,7.3,7.3,0,0,0-12.2,5.425h22.4a6.819,6.819,0,0,0-6.8-6.336Z" transform="translate(-347.586 -432.49)"/><path class="a" d="M700.475,673.96a6.785,6.785,0,0,0-3.4.912,7.3,7.3,0,0,0-12.2,5.425h22.4a6.819,6.819,0,0,0-6.8-6.336Z" transform="translate(-427.037 -432.49)"/><path class="a" d="M904.475,673.96a6.785,6.785,0,0,0-3.4.912,7.3,7.3,0,0,0-12.2,5.425h22.4a6.819,6.819,0,0,0-6.8-6.336Z" transform="translate(-531.606 -432.49)"/><path class="a" d="M1002.476,673.959a6.784,6.784,0,0,0-3.4.912,7.3,7.3,0,0,0-12.2,5.425h22.4a6.819,6.819,0,0,0-6.8-6.336Z" transform="translate(-581.839 -432.489)"/><path class="a" d="M120.8,407H113v7.8h3.615v26.277h.975V414.8H120.8Z" transform="translate(-57.923 -193.313)"/><rect class="a" width="30.219" height="0.975" transform="translate(21.506 234.654)"/><rect class="a" width="30.219" height="0.975" transform="translate(21.506 232.217)"/><rect class="a" width="30.219" height="0.975" transform="translate(21.506 229.779)"/></g></svg>