<svg xmlns="http://www.w3.org/2000/svg" xmlns:xlink="http://www.w3.org/1999/xlink" width="289.02" height="302.199" viewBox="0 0 289.02 302.199"><defs><style>.a{fill:none;stroke:#95ffa9;stroke-miterlimit:10;stroke-width:2px;stroke-dasharray:12;}.b{fill:url(#a);}.c{fill:#be7c5e;}.d{fill:url(#b);}.e{fill:url(#c);}.f{fill:#fff;}.g{fill:#3dcd58;}.h{fill:#dbdbdb;}.i{fill:url(#d);}.j{fill:url(#e);}.k{fill:#4d8af0;}.l{fill:url(#f);}.m{fill:url(#g);}.n{opacity:0.5;}.o{fill:url(#h);}.p{fill:#69f0ae;}.q{fill:url(#i);}</style><linearGradient id="a" x1="0.5" y1="1" x2="0.5" gradientUnits="objectBoundingBox"><stop offset="0" stop-color="gray" stop-opacity="0.251"/><stop offset="0.54" stop-color="gray" stop-opacity="0.122"/><stop offset="1" stop-color="gray" stop-opacity="0.102"/></linearGradient><linearGradient id="b" x1="0.5" y1="1" x2="0.5" y2="0" xlink:href="#a"/><linearGradient id="c" x1="1.241" y1="1.124" x2="1.241" y2="0.124" xlink:href="#a"/><linearGradient id="d" x1="0.5" y1="1" x2="0.5" y2="0" xlink:href="#a"/><linearGradient id="e" x1="1.307" y1="2.047" x2="1.307" y2="1.047" xlink:href="#a"/><linearGradient id="f" x1="0.5" y1="1" x2="0.5" y2="0" xlink:href="#a"/><linearGradient id="g" x1="0.5" y1="1" x2="0.5" y2="0" xlink:href="#a"/><linearGradient id="h" x1="0.5" y1="1" x2="0.5" y2="0" xlink:href="#a"/><linearGradient id="i" x1="0.5" y1="1" x2="0.5" y2="0" xlink:href="#a"/></defs><circle class="a" cx="118.396" cy="118.396" r="118.396" transform="translate(26.114 39.294)"/><circle class="a" cx="143.51" cy="143.51" r="143.51" transform="translate(1 14.18)"/><path class="b" d="M594.027,533.618a32.373,32.373,0,0,0-64.181-6.035l-99.5-2.7,1.092,17.094s-14.188,32.736,60.378,41.458v33.087h86.2V561.511A32.353,32.353,0,0,0,594.027,533.618Z" transform="translate(-353.469 -330.209)"/><path class="c" d="M440.06,580.542s-13.586,31.349,57.823,39.712v31.7h82.554V568L439,564.17Z" transform="translate(-358.671 -368.056)"/><path class="d" d="M436.05,197.949h0a15.22,15.22,0,0,1-20.928,4.756L370.8,173.5a15.22,15.22,0,0,1-4.756-20.929h0a15.22,15.22,0,0,1,20.913-4.756l44.325,29.208a15.22,15.22,0,0,1,4.772,20.929Z" transform="translate(-313.402 -116.284)"/><path class="c" d="M437.558,199.483h0A14.148,14.148,0,0,1,418.1,203.9l-41.215-27.171a14.148,14.148,0,0,1-4.421-19.454h0a14.148,14.148,0,0,1,19.454-4.421l41.207,27.155A14.148,14.148,0,0,1,437.558,199.483Z" transform="translate(-317.365 -119.413)"/><circle class="c" cx="31.002" cy="31.002" r="31.002" transform="translate(175.093 173.475)"/><rect class="e" width="128.529" height="231.992" rx="12.25" transform="translate(76.869)"/><rect class="f" width="125.053" height="225.725" rx="13.64" transform="translate(78.603 3.137)"/><path class="g" d="M533.346,94.28a10.137,10.137,0,0,1-9.994,8.623H480.163a10.137,10.137,0,0,1-9.99-8.623H447.292a4.748,4.748,0,0,0-4.752,4.748v204.9a4.748,4.748,0,0,0,4.748,4.752H556.57a4.748,4.748,0,0,0,4.752-4.748V99.032a4.748,4.748,0,0,0-4.748-4.752Z" transform="translate(-360.8 -85.482)"/><rect class="h" width="27.869" height="1.742" rx="0.871" transform="translate(127.372 11.497)"/><circle class="h" cx="1.044" cy="1.044" r="1.044" transform="translate(160.116 11.15)"/><path class="i" d="M746.906,432.771h0c-9,2.081-15.172-3.787-17.253-12.78L708.98,343.225a16.838,16.838,0,0,1,12.577-20.135h0a16.838,16.838,0,0,1,20.135,12.577l16.87,78.747C760.643,423.411,755.9,430.69,746.906,432.771Z" transform="translate(-520.771 -222.824)"/><rect class="c" width="28.216" height="112.659" rx="14.108" transform="translate(187.933 107.328) rotate(-13.01)"/><rect class="j" width="117.997" height="27.506" transform="translate(118.969 273.526)"/><rect class="k" width="111.619" height="21.526" transform="translate(122.158 276.715)"/><path class="l" d="M415.417,419.985h0a15.037,15.037,0,0,1-20.677,4.7l-29.726-19.234a15.037,15.037,0,0,1-4.7-20.677h0a15.037,15.037,0,0,1,20.677-4.7l29.726,19.234a15.037,15.037,0,0,1,4.7,20.677Z" transform="translate(-309.974 -255.969)"/><path class="m" d="M413.384,530.563h0a15.172,15.172,0,0,1-20.865,4.744l-18.413-13.426a15.172,15.172,0,0,1-4.744-20.865h0a15.172,15.172,0,0,1,20.865-4.744L408.64,509.7A15.172,15.172,0,0,1,413.384,530.563Z" transform="translate(-315.403 -325.835)"/><g class="n" transform="translate(105.276 80.146)"><circle class="o" cx="35.854" cy="35.854" r="35.854"/></g><circle class="p" cx="33.745" cy="33.745" r="33.745" transform="translate(107.385 82.255)"/><path class="f" d="M307.824,257.422l12.653,11.6L338.4,242.66l6.33,5.274L320.477,279.57,302.55,259.534Z" transform="translate(-181.341 -145.926)"/><path class="c" d="M414.376,531.813h0a14.148,14.148,0,0,1-19.454,4.421l-17.173-12.5a14.148,14.148,0,0,1-4.421-19.454h0a14.148,14.148,0,0,1,19.454-4.421l17.169,12.525A14.148,14.148,0,0,1,414.376,531.813Z" transform="translate(-317.882 -328.085)"/><path class="c" d="M416.441,421.1h0a14.148,14.148,0,0,1-19.454,4.421l-27.968-18.1a14.148,14.148,0,0,1-4.421-19.454h0a14.148,14.148,0,0,1,19.454-4.421l27.968,18.1A14.148,14.148,0,0,1,416.441,421.1Z" transform="translate(-312.632 -258.141)"/><path class="q" d="M422.522,310.189h0a15.108,15.108,0,0,1-20.773,4.72l-37.671-24.528a15.108,15.108,0,0,1-4.72-20.773h0a15.108,15.108,0,0,1,20.773-4.72L417.8,289.416A15.108,15.108,0,0,1,422.522,310.189Z" transform="translate(-309.393 -186.695)"/><path class="c" d="M423.766,311.545h0a14.148,14.148,0,0,1-19.454,4.421l-35.284-22.974a14.148,14.148,0,0,1-4.421-19.454h0a14.148,14.148,0,0,1,19.454-4.421l35.279,22.974A14.148,14.148,0,0,1,423.766,311.545Z" transform="translate(-312.638 -189.327)"/></svg>