<svg xmlns="http://www.w3.org/2000/svg" width="411.9" height="329.221" viewBox="0 0 411.9 329.221"><defs><style>.a,.b{fill:#3dcd58;}.a,.e{opacity:0.1;}.c{fill:#46455b;}.d{fill:#3f3d56;}.f{fill:#323444;}.g{fill:#fbb3b2;}.h{fill:#5b5583;}.i{fill:#3c354c;}.j{fill:#cbceda;}.k{fill:#a8a8a8;}.l{opacity:0.2;}</style></defs><g transform="translate(0)"><rect class="a" width="37.352" height="11.293" rx="5.646" transform="translate(84.203 56.463)"/><rect class="a" width="37.352" height="11.293" rx="5.646" transform="translate(123.293 67.755)"/><rect class="a" width="37.352" height="11.293" rx="5.646" transform="translate(162.382 79.048)"/><rect class="a" width="37.352" height="11.293" rx="5.646" transform="translate(84.203 39.524)"/><rect class="a" width="37.352" height="11.293" rx="5.646" transform="translate(123.293 50.816)"/><rect class="a" width="37.352" height="11.293" rx="5.646" transform="translate(162.382 62.109)"/><rect class="a" width="37.352" height="11.293" rx="5.646" transform="translate(205.815 56.463)"/><rect class="a" width="37.352" height="11.293" rx="5.646" transform="translate(244.905 67.755)"/><rect class="a" width="37.352" height="11.293" rx="5.646" transform="translate(283.995 79.048)"/><rect class="a" width="37.352" height="11.293" rx="5.646" transform="translate(205.815 39.524)"/><rect class="a" width="37.352" height="11.293" rx="5.646" transform="translate(244.905 50.816)"/><rect class="a" width="37.352" height="11.293" rx="5.646" transform="translate(283.995 62.109)"/><rect class="a" width="37.352" height="11.293" rx="5.646" transform="translate(84.203 16.939)"/><rect class="a" width="37.352" height="11.293" rx="5.646" transform="translate(123.293 28.231)"/><rect class="a" width="37.352" height="11.293" rx="5.646" transform="translate(162.382 39.524)"/><rect class="a" width="37.352" height="11.293" rx="5.646" transform="translate(84.203)"/><rect class="a" width="37.352" height="11.293" rx="5.646" transform="translate(123.293 11.293)"/><rect class="a" width="37.352" height="11.293" rx="5.646" transform="translate(162.382 22.585)"/><rect class="a" width="37.352" height="11.293" rx="5.646" transform="translate(205.815 16.939)"/><rect class="a" width="37.352" height="11.293" rx="5.646" transform="translate(244.905 28.231)"/><rect class="a" width="37.352" height="11.293" rx="5.646" transform="translate(283.995 39.524)"/><rect class="a" width="37.352" height="11.293" rx="5.646" transform="translate(205.815)"/><rect class="a" width="37.352" height="11.293" rx="5.646" transform="translate(244.905 11.293)"/><rect class="a" width="37.352" height="11.293" rx="5.646" transform="translate(283.995 22.585)"/><rect class="a" width="37.352" height="11.293" rx="5.646" transform="translate(84.203 257.557)"/><rect class="a" width="37.352" height="11.293" rx="5.646" transform="translate(123.293 268.849)"/><rect class="a" width="37.352" height="11.293" rx="5.646" transform="translate(162.382 280.142)"/><rect class="a" width="37.352" height="11.293" rx="5.646" transform="translate(84.203 240.618)"/><rect class="a" width="37.352" height="11.293" rx="5.646" transform="translate(123.293 251.911)"/><rect class="a" width="37.352" height="11.293" rx="5.646" transform="translate(162.382 263.203)"/><rect class="a" width="37.352" height="11.293" rx="5.646" transform="translate(205.815 257.557)"/><rect class="a" width="37.352" height="11.293" rx="5.646" transform="translate(244.905 268.849)"/><rect class="a" width="37.352" height="11.293" rx="5.646" transform="translate(283.995 280.142)"/><rect class="a" width="37.352" height="11.293" rx="5.646" transform="translate(205.815 240.618)"/><rect class="a" width="37.352" height="11.293" rx="5.646" transform="translate(244.905 251.911)"/><rect class="a" width="37.352" height="11.293" rx="5.646" transform="translate(283.995 263.203)"/><rect class="a" width="37.352" height="11.293" rx="5.646" transform="translate(84.203 218.033)"/><rect class="a" width="37.352" height="11.293" rx="5.646" transform="translate(123.293 229.326)"/><rect class="a" width="37.352" height="11.293" rx="5.646" transform="translate(162.382 240.618)"/><rect class="a" width="37.352" height="11.293" rx="5.646" transform="translate(84.203 201.094)"/><rect class="a" width="37.352" height="11.293" rx="5.646" transform="translate(123.293 212.387)"/><rect class="a" width="37.352" height="11.293" rx="5.646" transform="translate(162.382 223.679)"/><rect class="a" width="37.352" height="11.293" rx="5.646" transform="translate(205.815 218.033)"/><rect class="a" width="37.352" height="11.293" rx="5.646" transform="translate(244.905 229.326)"/><rect class="a" width="37.352" height="11.293" rx="5.646" transform="translate(283.995 240.618)"/><rect class="a" width="37.352" height="11.293" rx="5.646" transform="translate(205.815 201.094)"/><rect class="a" width="37.352" height="11.293" rx="5.646" transform="translate(244.905 212.387)"/><rect class="a" width="37.352" height="11.293" rx="5.646" transform="translate(283.995 223.679)"/><ellipse class="a" cx="190.453" cy="15.636" rx="190.453" ry="15.636" transform="translate(19.054 297.949)"/><path class="b" d="M162.586,251.185c17.96,7.783,28.279,23.888,28.279,23.888s-18.8,3.475-36.766-4.3S125.82,246.88,125.82,246.88,144.622,243.4,162.586,251.185Z" transform="translate(-125.82 -170.052)"/><path class="b" d="M330.706,171.464C336.261,162.343,345.721,158,345.721,158s.434,10.4-5.1,19.493S325.6,190.926,325.6,190.926,325.147,180.533,330.706,171.464Z" transform="translate(-238.824 -120.213)"/><path class="c" d="M241.215,175.188c3.974,14.185,14.928,23.523,14.928,23.523s4.513-13.668.539-27.858-14.932-23.523-14.932-23.523S237.236,161,241.215,175.188Z" transform="translate(-190.168 -114.178)"/><rect class="d" width="316.626" height="158.53" rx="7.21" transform="translate(51.629 60.372)"/><path class="e" d="M118.87,482H435.5v6.424a3.132,3.132,0,0,1-3.131,3.132H122a3.132,3.132,0,0,1-3.132-3.132Z" transform="translate(-67.241 -272.654)"/><rect class="b" width="23.454" height="11.727" rx="2.5" transform="translate(82.466 197.62)"/><rect class="b" width="16.07" height="1.737" rx="0.869" transform="translate(112.435 207.609)"/><path class="b" d="M318.307,271.669c11.462,2.115,23.154,0,34.568-1.433l34.69-4.343c1.4-.178,3.444-1.016,4.269.7.465.96.152,3.04.187,4.143.091,3.04.083,6.081,0,9.121-.156,5.811-.582,11.61-1.125,17.395-1.055,11.323-2.549,22.585-3.3,33.952-.382,5.785-.573,11.588-.4,17.373.039,1.381.1,2.762.178,4.139.091,1.542.782,3.831-.9,4.86-.96.591-2.849.56-3.948.734-1.737.274-3.475.491-5.247.669-11.679,1.168-23.51.682-35.233.612l-35.4-.182-8.634-.048c-.782,0-3.6.469-4.083-.46-.2-.4.339-2.245.434-2.741q.2-1.225.434-2.445c1.008-5.711,2.2-11.388,3.4-17.06,2.576-12.161,5.212-24.383,6.272-36.805.526-6.233.178-12.522.821-18.741.3-2.888.656-9.334,4.5-9.59,3.257-.217,6.61,0,9.877,0a.652.652,0,0,0,0-1.3c-3.084,0-6.172-.083-9.256-.022-2.05.039-3.475.526-4.452,2.411-2.5,4.838-2.241,11.293-2.319,16.574-.187,12.643-2.128,25.017-4.656,37.383-1.273,6.224-2.645,12.426-3.909,18.654-.6,2.975-1.164,5.959-1.685,8.952-.243,1.425-1.472,4.565-.391,5.872s4.408.6,5.9.612l10.363.061,19.858.113c12.83.074,25.7.434,38.529.056,6.124-.182,12.6-.434,18.559-1.9,1.776-.434,2.632-1.251,2.7-3.145.1-2.936-.374-5.963-.434-8.912-.434-25.234,5.494-50.117,4.886-75.36-.039-1.716.608-6.042-1.268-7.08a4.739,4.739,0,0,0-2.823-.109c-1.694.2-3.383.434-5.077.634l-22,2.745c-7.032.869-14.059,1.807-21.1,2.606-7.457.869-14.989,1.386-22.42,0-.821-.152-1.173,1.1-.347,1.255Z" transform="translate(-220.14 -180.295)"/><path class="b" d="M319.183,309.488l86.788-4.256c.838-.043.843-1.346,0-1.3l-86.788,4.256C318.349,308.224,318.345,309.527,319.183,309.488Z" transform="translate(-234.845 -202.76)"/><path class="b" d="M380.789,286.532a2.172,2.172,0,0,0,.769,3.505c1.168.534,2.541.087,3.7-.2,1.737-.434,3.475-.821,5.26-1.138a71.729,71.729,0,0,1,11.766-1.094c1.8-.022,3.583.061,5.381.139,1.3.052,2.706.156,3.809-.651a2.459,2.459,0,0,0,.434-3.839c-1.737-1.585-5.481-.665-7.488-.5a167.917,167.917,0,0,0-21.656,3.231c-.817.174-.473,1.433.347,1.255q7.066-1.524,14.242-2.45,3.527-.434,7.067-.734c1.112-.091,2.224-.174,3.336-.239.434-.026.895-.074,1.338-.061,1.377.03,1.538-.217.712,1.446-.734,1.472-.5,1.3-1.772,1.255-.539,0-1.077-.061-1.616-.087q-1.655-.069-3.31-.074-3.522,0-7.027.339c-1.981.191-3.957.46-5.916.808-1.225.217-2.441.469-3.653.747-.534.126-1.073.256-1.607.391-.256.07-.517.13-.773.2q-1.425.5-2.428-1.3c.582-.6-.334-1.529-.921-.921Z" transform="translate(-269.713 -190.545)"/><path class="b" d="M390.813,333.373c-6.285-.243-13.073,1.455-17.212,6.515-3.24,3.957-5.086,10.745-1.655,15.2,3.687,4.778,11.775,3.935,16.652,1.9,5.16-2.172,10.806-6.65,12.357-12.252,1.933-7-4.343-12.287-10.88-12.365a.652.652,0,0,0,0,1.3c3.727.043,7.384,1.642,9.121,5.112,1.82,3.657.252,7.5-2.172,10.424-3.883,4.66-9.955,8.174-16.14,8.074-3.714-.056-7.818-1.329-8.969-5.247a12.126,12.126,0,0,1,1.425-9.46c3.57-6.081,10.837-8.139,17.5-7.879.838.03.838-1.273,0-1.3Z" transform="translate(-264.006 -218.85)"/><path class="b" d="M400.437,351.233a1.694,1.694,0,0,0-2.276,1.737c.13,1.694,2,2.172,3.4,2.072,1.212-.1,2.628-.552,2.2-2.067a1.946,1.946,0,0,0-1.06-1.225,2.454,2.454,0,0,0-1.225-.152c-.161,0-1.633.539-1.008-.109l-1.025-.135a1.068,1.068,0,0,1,.313.869.656.656,0,0,0,.977.56.869.869,0,0,1,1.177,1.016.656.656,0,0,0,1.19.5c.434-.782.96-2.337.308-3.153a1.39,1.39,0,0,0-1.794-.065,6.283,6.283,0,0,0-.895.769c-.526.465-.869.682-.673-.208a5.632,5.632,0,0,1,3.284-3.557l-.956-.734a13.733,13.733,0,0,1-2.628,5.147l1.112.46a2.9,2.9,0,0,1,1.772-2.827H402l.339.556c-.126.821,1.129,1.173,1.255.343.165-1.073-.512-2.467-1.768-1.941a4.091,4.091,0,0,0-2.245,3.87c0,.521.738.925,1.116.465a15.314,15.314,0,0,0,2.958-5.729.66.66,0,0,0-.96-.734,7.284,7.284,0,0,0-3.162,2.754c-.53.869-1.194,2.224-.656,3.223a1.381,1.381,0,0,0,1.889.534,5.083,5.083,0,0,0,1.09-.869c.161-.143.339-.391.552-.434.191-.13.182-.056-.03.23a2.367,2.367,0,0,1-.378,1.268l1.19.5a2.172,2.172,0,0,0-3.088-2.489l.982.565a2.367,2.367,0,0,0-.491-1.533.66.66,0,0,0-1.021-.135,1.7,1.7,0,0,0,.043,2.523c.621.473.925,0,1.607-.109,2.315-.3.964.743.148.777a3.079,3.079,0,0,1-1.09-.078q-1.359-.46-.169-1.186c.777.317,1.112-.943.347-1.255Z" transform="translate(-279.872 -227.058)"/><path class="b" d="M392.563,361.336c.534,1.737-1.672,2.311-2.719,2.91a6.054,6.054,0,0,0-1.881,1.646,12.576,12.576,0,0,0-1.863,5.095c-.165.821,1.09,1.168,1.26.347a14.767,14.767,0,0,1,1.1-3.748c.782-1.555,1.9-2.076,3.362-2.875s2.515-2.037,2-3.722C393.575,360.189,392.316,360.532,392.563,361.336Z" transform="translate(-273.045 -234.781)"/><path class="b" d="M396.953,360.37a1.26,1.26,0,0,0-1.086,1.3c0,.517.343.847.578,1.26a9.947,9.947,0,0,1,1.26,2.741,5.914,5.914,0,0,1-.074,3.475c-.9,1.611-2.523,1.3-3.909,1.3-1.3,0-2.311.434-2.267-1.381a5.777,5.777,0,0,1,1.3-2.858l-1.19-.156a22.7,22.7,0,0,1,.4,4.022c0,.6.925.938,1.212.326a25.163,25.163,0,0,0,1.655-4.578l-1.281-.174.226,3.3a.656.656,0,0,0,1.212.33,1.477,1.477,0,0,0,.326-.586c.043-.2-.356-1.581-.517-1.09l1.277.174.091-3.136-1.3.174a6.488,6.488,0,0,1,.243,2.736c-.083.725,1.138.89,1.3.174l.817-4.213-1.19.152a2.88,2.88,0,0,1,.221,1.876c-.1.834,1.207.825,1.3,0a4.578,4.578,0,0,0-.4-2.532.656.656,0,0,0-1.19.156l-.821,4.213,1.281.174a7.106,7.106,0,0,0-.291-3.079.651.651,0,0,0-1.277.169l-.091,3.136a.655.655,0,0,0,1.281.174l.07-.213a.66.66,0,0,0-.165-.634c-1.351-1.468-1.624.869-2.093,1.516l1.216.33-.226-3.3a.656.656,0,0,0-1.281-.174,23.349,23.349,0,0,1-1.52,4.269l1.216.33a24.558,24.558,0,0,0-.434-4.369c-.113-.6-.9-.573-1.19-.156-.869,1.251-2.371,3.983-1.212,5.481,1.012,1.3,4.2.8,5.555.717,2.146-.122,2.923-1.481,3.158-3.505a8.581,8.581,0,0,0-.161-2.9c-.117-.513-1.3-3.761-1.659-3.7.825-.152.473-1.412-.347-1.26Z" transform="translate(-275.263 -234.688)"/><path class="b" d="M395.2,364.773l-3.557,4.7,1.125.656,2.606-3.77-1.19-.5-1.3,4.956a.656.656,0,0,0,1.19.5,22.893,22.893,0,0,1,1.985-2.793l-1.086-.634a7.092,7.092,0,0,1-1.637,3.01l1.09.634a5.82,5.82,0,0,1,.473-1.737c.334-.751-.725-1.416-1.125-.66a15.29,15.29,0,0,1-1.255,1.972l1.19.156.265-1.238-1.19-.156.191,1.086a.656.656,0,0,0,1.09.287,12.97,12.97,0,0,0,2.606-3.931h-1.121a5.851,5.851,0,0,1,.612,1.737c.156.782,1.194.491,1.277-.174a35.312,35.312,0,0,0,.287-4.387h-1.3v2.732c0,.708,1.16.916,1.281.174a4.979,4.979,0,0,1,.638-1.868h-1.142a2.9,2.9,0,0,1,.434,1.477.651.651,0,1,0,1.3,0l.165-.869h-1.255c.126.769.6,5.1-1.094,4.591-.287-.069-.369-.052-.248.048l.387-.825.908-1.924-1.216-.33a4.766,4.766,0,0,1-.378,2.936,2.25,2.25,0,0,1-2.454.5,4.343,4.343,0,0,1-1.134-1.19l-.89.869c.721.526,1.889,1.815,2.819,1.889.708.056,1.3-.53,1.768-1a7.57,7.57,0,0,0,2.124-5.572.651.651,0,0,0-1.3,0v1.485a.652.652,0,0,0,1.3,0v-3.644a.651.651,0,1,0-1.3,0,15.636,15.636,0,0,1-.226,2.606l1.281.174a29.99,29.99,0,0,1-.143-3.123.651.651,0,0,0-1.277-.174c-.2.83-.434,1.646-.664,2.458l1.19-.156-.091-.347c-.061-.83-1.364-.834-1.3,0a2.385,2.385,0,0,0,.269,1.008.658.658,0,0,0,1.19-.156c.248-.817.469-1.633.665-2.458l-1.281-.174a30,30,0,0,0,.143,3.123c.065.669,1.142.956,1.277.174a17.952,17.952,0,0,0,.274-2.971h-1.3v3.644h1.3v-1.485h-1.3a6.263,6.263,0,0,1-1.585,4.465,5.338,5.338,0,0,1-.547.539c-.308.3-.591.252-.838-.135a10.85,10.85,0,0,1-1.794-1.3c-.539-.387-1.277.378-.895.89,1,1.329,2.489,2.81,4.343,2.172,1.95-.691,2.215-3.331,2.067-5.069-.048-.578-.912-.969-1.212-.326-.434.916-.869,1.828-1.3,2.749a2.429,2.429,0,0,0-.391,1.147c.143.977,1.329.817,2.059.76,2.827-.213,2.38-4.222,2.054-6.237-.109-.669-1.081-.565-1.255,0a3.836,3.836,0,0,0-.213,1.233h1.3a5.164,5.164,0,0,0-.612-2.133.656.656,0,0,0-1.125,0,6.333,6.333,0,0,0-.773,2.172l1.3.174v-2.732a.651.651,0,0,0-1.3,0,35.311,35.311,0,0,1-.287,4.387l1.281-.174a7.457,7.457,0,0,0-.743-2.033.656.656,0,0,0-1.125,0,11.884,11.884,0,0,1-2.4,3.666l1.09.287-.191-1.086c-.1-.578-.916-.6-1.19-.156a2.858,2.858,0,0,0-.4,2.241c.109.617.89.552,1.19.156a15.247,15.247,0,0,0,1.255-1.967l-1.125-.66a7.409,7.409,0,0,0-.608,2.046c-.078.573.6,1.173,1.09.634a8.686,8.686,0,0,0,1.972-3.588c.161-.591-.656-1.151-1.09-.634a24.883,24.883,0,0,0-2.172,3.04l1.19.5,1.325-4.938a.656.656,0,0,0-1.19-.5l-2.606,3.774c-.486.7.63,1.3,1.125.656l3.544-4.691c.5-.669-.625-1.3-1.125-.66Z" transform="translate(-276.038 -236.164)"/><path class="b" d="M526.49,343.5c5.212-3.188,9.355-7.944,13.959-11.922,4.995-4.313,10.237-8.33,15.636-12.135,10.485-7.384,21.495-13.99,32.5-20.579a.651.651,0,0,0-.656-1.125c-11,6.589-22.016,13.182-32.5,20.579-4.947,3.475-9.777,7.158-14.407,11.067-5.038,4.256-9.525,9.555-15.2,12.991-.717.434-.061,1.564.656,1.125Z" transform="translate(-351.911 -199.216)"/><path class="b" d="M686.743,253.845c-5.646.573-11.727,2.011-15.2,6.949-3,4.248-2.936,11.657-.117,16.018,3.2,4.956,9.742,5.134,14.824,3.531s10.341-4.413,10.294-10.485a25.337,25.337,0,0,0-2.5-9.6c-1.121-2.55-3.105-4.778-6.111-4.5-.83.078-.838,1.381,0,1.3,4.026-.374,5.32,4.408,6.276,7.427.869,2.819,1.672,6.154.308,8.956s-4.652,4.23-7.462,5.255c-3.04,1.1-6.38,1.776-9.555.869-6.289-1.759-8.026-9.729-6.215-15.384,2.085-6.515,9.468-8.43,15.484-9.038.825-.083.834-1.385,0-1.3Z" transform="translate(-433.251 -174.428)"/><path class="b" d="M706.743,369.845c-5.646.573-11.727,2.011-15.2,6.949-3,4.248-2.936,11.657-.117,16.018,3.2,4.956,9.742,5.134,14.824,3.531s10.341-4.413,10.294-10.485a25.338,25.338,0,0,0-2.5-9.6c-1.121-2.549-3.105-4.778-6.111-4.5-.83.078-.838,1.381,0,1.3,4.026-.374,5.32,4.408,6.276,7.427.869,2.819,1.672,6.154.308,8.956s-4.652,4.23-7.462,5.255c-3.04,1.1-6.38,1.776-9.555.869-6.289-1.759-8.026-9.729-6.215-15.384,2.085-6.515,9.468-8.43,15.484-9.038.825-.083.834-1.385,0-1.3Z" transform="translate(-444.564 -240.046)"/><path class="b" d="M689.645,254.127l4.113,4.691a.656.656,0,0,0,1.086-.291c.869-2.285.7-4.652.908-7.053a23.222,23.222,0,0,1,1.846-7.2,24.292,24.292,0,0,1,9.72-11.141c.717-.434.061-1.564-.656-1.125a25.5,25.5,0,0,0-9.829,10.8,24.962,24.962,0,0,0-2.172,6.893c-.434,2.819-.039,5.772-1.081,8.478l1.09-.291-4.091-4.682c-.556-.63-1.472.3-.921.921Z" transform="translate(-444.671 -162.023)"/><path class="b" d="M531.779,412.341q33.6-1.025,67.225-.434a.652.652,0,0,0,0-1.3q-33.613-.6-67.225.434C530.941,411.064,530.936,412.367,531.779,412.341Z" transform="translate(-355.103 -262.98)"/><path class="b" d="M697.619,383.612a134.611,134.611,0,0,1,22.007,11.058c.712.434,1.368-.682.656-1.125a136.044,136.044,0,0,0-22.3-11.188c-.777-.308-1.116.951-.343,1.255Z" transform="translate(-449.035 -247.099)"/><path class="b" d="M713.543,371.44a53.2,53.2,0,0,0-12.774,32.371c-.035.838,1.268.838,1.3,0a51.746,51.746,0,0,1,12.391-31.45C715.006,371.726,714.09,370.8,713.543,371.44Z" transform="translate(-451.052 -240.828)"/><path class="b" d="M329.389,401.277l48.545-.634,5.581-.074c1,0,2.007-.035,3.01-.039a2.394,2.394,0,0,1,2.337,2.606c-.065,3.04-1.976,2.932-4.478,3.04l-6.033.274-24.566,1.081c-4.4.2-8.8.434-13.2.586-3.97.122-11.518-1.173-9.755-6.949.243-.8-1.012-1.147-1.26-.347a6.4,6.4,0,0,0,3.145,7.214c3.514,2.111,8.144,1.394,12.022,1.22l30.16-1.368,7.323-.326c1.876-.087,4.487.3,6.211-.578,2.024-1.021,2.38-5.073,1.1-6.78a3.019,3.019,0,0,0-2.606-.986c-2.7-.1-5.451.074-8.157.109l-15.036.2-34.36.434a.652.652,0,0,0,0,1.3Z" transform="translate(-240.607 -256.645)"/><g transform="translate(278.814 97.559)"><path class="f" d="M773.863,759.518c-1.095.686-2.345,1.073-3.475,1.677a4.754,4.754,0,0,0-2.549,2.762,1.737,1.737,0,0,0,.056,1.181,2.293,2.293,0,0,0,1.216.964,18.455,18.455,0,0,0,14.6.165,19.231,19.231,0,0,1,2.519-1,16.364,16.364,0,0,1,3.227-.33,24.8,24.8,0,0,0,3.392-.434,2.984,2.984,0,0,0,1.537-.638,2.853,2.853,0,0,0,.691-1.659,13.66,13.66,0,0,0-2.172-9.677,3.269,3.269,0,0,0-.947-1,3.652,3.652,0,0,0-1.507-.4c-2.172-.265-4.448-.751-6.641-.8-1.572-.035-2.363.712-3.475,1.794C778.037,754.41,776.7,757.75,773.863,759.518Z" transform="translate(-767.762 -552.83)"/><path class="f" d="M855.167,758.926a9.928,9.928,0,0,0,1.546,6.081,8.029,8.029,0,0,0,2.111,1.846c2.728,1.737,6.341,2.376,9.216.9a2.737,2.737,0,0,0,1.147-.964,3.286,3.286,0,0,0-.039-2.532l-4.161-14.42c-2.688.413-6.641.7-9.03,2.067C854.224,752.893,855.167,757.024,855.167,758.926Z" transform="translate(-817.06 -552.56)"/><path class="g" d="M773.419,561.225c-.252.795-1.164,1.164-1.664,1.833a3.479,3.479,0,0,0-.313,2.832,7.488,7.488,0,0,0,1.907,3.757,4.5,4.5,0,0,0,3.909,1.329,3.257,3.257,0,0,0,2.654-2.923,5.534,5.534,0,0,0-.408-1.881l-2.962-8.565a.324.324,0,0,0-.534-.234c-.7.33-2.1.678-2.51,1.4S773.715,560.439,773.419,561.225Z" transform="translate(-769.759 -443.649)"/><path class="f" d="M773,556.1a14.039,14.039,0,0,0,3.04-1.22,3.138,3.138,0,0,1,3.132.117c.243.2.478.473.795.469a31.1,31.1,0,0,0-1.946-6.185.482.482,0,0,0-.169-.239.491.491,0,0,0-.369,0l-2.923.764c-1.082.282-1.208.2-1.125,1.26C773.456,551.541,773.7,556.1,773,556.1Z" transform="translate(-770.725 -438.954)"/><path class="h" d="M769.985,422.716a4.117,4.117,0,0,0-.434,2.289,77.819,77.819,0,0,0,.608,11.514c.135.912.3,1.824.391,2.745a31.658,31.658,0,0,1,.061,3.852l-.434,16.722c-.052,2.046-.156,4.243-1.42,5.85a2.8,2.8,0,0,0-.508,1.855c.33,4.2,1.025,8.356,1.716,12.5a7.727,7.727,0,0,1,7.01.334,77.161,77.161,0,0,0,3.6-21.282,84.492,84.492,0,0,1,.5-10.65,67.749,67.749,0,0,0-.13-17.933,9.91,9.91,0,0,0-1.872-5.286,8.013,8.013,0,0,0-4.343-2.5C773.116,422.308,771.679,422.742,769.985,422.716Z" transform="translate(-768.031 -367.418)"/><path class="e" d="M769.985,422.716a4.117,4.117,0,0,0-.434,2.289,77.819,77.819,0,0,0,.608,11.514c.135.912.3,1.824.391,2.745a31.658,31.658,0,0,1,.061,3.852l-.434,16.722c-.052,2.046-.156,4.243-1.42,5.85a2.8,2.8,0,0,0-.508,1.855c.33,4.2,1.025,8.356,1.716,12.5a7.727,7.727,0,0,1,7.01.334,77.161,77.161,0,0,0,3.6-21.282,84.492,84.492,0,0,1,.5-10.65,67.749,67.749,0,0,0-.13-17.933,9.91,9.91,0,0,0-1.872-5.286,8.013,8.013,0,0,0-4.343-2.5C773.116,422.308,771.679,422.742,769.985,422.716Z" transform="translate(-768.031 -367.418)"/><path class="i" d="M782.63,526.971a76.707,76.707,0,0,0,4.569,44.406,12.041,12.041,0,0,1,1.06,3.284c.239,2.128-.743,4.174-1.3,6.233-1.3,4.682-.552,9.668.282,14.459q.521,3,1.073,5.989c.36,1.946.708,4.061-.2,5.824.777,3.24,1.238,6.45,2.015,9.69a1.843,1.843,0,0,1,.074.795,2.341,2.341,0,0,1-.795,1.064,4.752,4.752,0,0,0-1.212,4.547c1.985-1.425,4.752-.925,7.019,0s4.5,2.172,6.949,2.172c-.356-2.875-.7-5.894.361-8.591.617-1.564,1.7-3.04,1.672-4.712-.03-1.5-.947-2.836-1.168-4.317a10.926,10.926,0,0,1,.1-2.762c.582-5.316-.078-10.684-.738-15.992a9.556,9.556,0,0,0-.73-3.04,4.49,4.49,0,0,1-.76-1.924c0-.812.656-1.472.9-2.245.434-1.425-.365-3.362.838-4.243,3.171-2.328,1.954-7.887,1.885-11.818q-.082-5.086-.434-10.163a43.291,43.291,0,0,1,2.4,17.521c-.139,1.946-.4,3.991.365,5.79.582,1.381,1.737,2.519,2.05,3.983a16.669,16.669,0,0,1,.1,2.758,2.842,2.842,0,0,0,1.151,2.389c.061,4.187.434,8.665.5,12.852a31.7,31.7,0,0,0,.521,6.385,8.137,8.137,0,0,1,.321,2.059,8.6,8.6,0,0,1-.686,2.532,14.52,14.52,0,0,0,2.172,13.4,6.477,6.477,0,0,1,5.247-2.936,19.033,19.033,0,0,1,6.163.9,12.071,12.071,0,0,1,1.442-7.34,6.008,6.008,0,0,0,.76-1.633c.235-1.1-.313-2.2-.608-3.292a16.554,16.554,0,0,1-.2-5.425,85.839,85.839,0,0,0-.8-18.207,15.424,15.424,0,0,0-.83-3.475c-.156-.4-.347-.782-.478-1.186a9.351,9.351,0,0,1-.347-2.224l-.5-6.949c-.352-4.869,1.247-9.677,2.363-14.428.5-2.128,1.042-4.252,1.377-6.415.456-2.945.53-5.955,1.2-8.86.6-2.606,1.681-5.147,1.907-7.818.347-4.139-1.372-8.139-3.04-11.935-.695-1.564-3.323-1.407-5.012-1.685-11.983-1.968-24.6-1.981-35.906,2.454A8.935,8.935,0,0,0,782.63,526.971Z" transform="translate(-775.369 -423.18)"/><path class="g" d="M802.068,352.433,803.4,357.6a13.813,13.813,0,0,1,.6,3.653,2.7,2.7,0,0,1-.291,1.3,3.105,3.105,0,0,1-.825.843c-.908.691-1.538,2.3-2.576,2.78.534.929,1.273.326,2.237.79,1.7.825,3.253,2.011,5.095,2.419a11.365,11.365,0,0,0,5.286-.434,18.252,18.252,0,0,0,6.845-3.184c1.968-1.6,3.088-3.019,3.079-5.551-2.172.256-4.1-1.937-5.064-3.909a10.617,10.617,0,0,1-.73-2.341l-1.164-5.121c-1.268.278-2.3,1.186-3.514,1.659a12.758,12.758,0,0,1-3.991.578,43,43,0,0,0-7.106.921c-.321.065-.725.269-.647.582" transform="translate(-786.168 -325.731)"/><path class="e" d="M802.068,352.433,803.4,357.6a13.813,13.813,0,0,1,.6,3.653,2.7,2.7,0,0,1-.291,1.3,3.105,3.105,0,0,1-.825.843c-.908.691-1.538,2.3-2.576,2.78.534.929,1.273.326,2.237.79,1.7.825,3.253,2.011,5.095,2.419a11.365,11.365,0,0,0,5.286-.434,18.252,18.252,0,0,0,6.845-3.184c1.968-1.6,3.088-3.019,3.079-5.551-2.172.256-4.1-1.937-5.064-3.909a10.617,10.617,0,0,1-.73-2.341l-1.164-5.121c-1.268.278-2.3,1.186-3.514,1.659a12.758,12.758,0,0,1-3.991.578,43,43,0,0,0-7.106.921c-.321.065-.725.269-.647.582" transform="translate(-786.168 -325.731)"/><circle class="g" cx="11.501" cy="11.501" r="11.501" transform="translate(10.106 6.549)"/><path class="f" d="M807.406,370.2a10.424,10.424,0,0,1,2.606-3.475c1.62-1.42,3.835-2.571,4.217-4.691l3.509,4.087a1.89,1.89,0,0,1,.434.669,1.685,1.685,0,0,1-.33,1.351,14.065,14.065,0,0,1-3.531,3.379,107.263,107.263,0,0,0-8.509,7.505.869.869,0,0,1-.456.278.821.821,0,0,1-.473-.135,19.757,19.757,0,0,1-6.068-4.934c-.126-.152-.282-.326-.486-.313a.626.626,0,0,0-.326.169c-1.168.956-2.445,2.1-3.944,1.95a9.341,9.341,0,0,0,3.449-6.081,11.491,11.491,0,0,1,.5-2.376,2.48,2.48,0,0,1,1.694-1.607c-.947,1.446-.3,3.5.973,4.665a9.59,9.59,0,0,0,4.309,2.089C806.446,373.005,806.88,371.333,807.406,370.2Z" transform="translate(-782.632 -333.187)"/><path class="f" d="M783.308,526.387c1.637.4,3.188,1.09,4.778,1.6a22.834,22.834,0,0,0,8.969.943,4.843,4.843,0,0,0,2.606-.83c.2-.165.391-.36.608-.513a4.252,4.252,0,0,1,1.168-.482c3.983-1.247,7.318-3.935,10.554-6.567.1-.087.221-.2.213-.334a.435.435,0,0,0-.13-.248l-1.7-1.954c-4.465.76-9.038.473-13.568.36a19.7,19.7,0,0,0-2.788.074c-.895.1-1.776.33-2.658.521-3.349.73-6.771,1.008-10.163,1.485a1.568,1.568,0,0,0-.673.208,1.516,1.516,0,0,0-.361.4l-1.19,1.672a5.26,5.26,0,0,0-1,1.915c-.278,1.3.3,1.737,1.412,1.568A10.312,10.312,0,0,1,783.308,526.387Z" transform="translate(-773.497 -421.415)"/><path class="h" d="M792.608,382.4a21.154,21.154,0,0,0-4.478-3.5,6.345,6.345,0,0,0-2.172-.869,2.71,2.71,0,0,0-2.224.547c-.387.343-.63.821-1,1.181a4.99,4.99,0,0,1-1.59.9,28.194,28.194,0,0,0-5.586,3.184,12.814,12.814,0,0,0-2.532,2.337c-1.968,2.519-2.263,5.946-2.211,9.143.039,2.224,2.172,3.874,3.64,5.538a40.809,40.809,0,0,1,3.727,5.212,7.1,7.1,0,0,1,1.516,4.1c-.083,1.22-.795,2.367-.682,3.583.039.434.178.834.217,1.255a14.113,14.113,0,0,1-.352,2.606,33.143,33.143,0,0,0,.3,3.687,11.726,11.726,0,0,1-.321,2.515c-.834,3.97-1.881,7.961-1.668,12.014l-2.406.434a2.033,2.033,0,0,1-.465,3.244c3.757,1.255,7.818.621,11.8.617,3.3,0,6.58.434,9.872.374a17.063,17.063,0,0,0,9.4-2.519c.738-.5,1.416-1.095,2.193-1.533a10.82,10.82,0,0,1,3.323-1.086,32.968,32.968,0,0,1,6.515-.582,5.016,5.016,0,0,0,3.084-.6,4.407,4.407,0,0,0,1.3-3.171c.126-1.234.2-2.471.226-3.709a15.993,15.993,0,0,0-.152-2.884,18.883,18.883,0,0,0-.508-2.067l-1.637-5.768c-.678-2.38.265-4.99.465-7.457a1.87,1.87,0,0,0-.391-1.633c-.161-.135-.382-.226-.434-.434a.743.743,0,0,1,.1-.582,32.149,32.149,0,0,1,3.362-4.838,98.89,98.89,0,0,0,5.559-8.543,27.489,27.489,0,0,0-7.358-16.452,7.961,7.961,0,0,0-3.079-2.272,9.121,9.121,0,0,0-2.45-.4c-3.405-.23-6.949-.434-9.916-2.146a1.886,1.886,0,0,0-.708-.3c-.656-.074-1.134.573-1.559,1.086-1.095,1.3-2.706,2.05-4.122,3.01A29.228,29.228,0,0,0,792.608,382.4Z" transform="translate(-769.485 -338.559)"/><path class="h" d="M882.049,418.831c.678,2.146.612,4.439.834,6.676a25.973,25.973,0,0,0,.708,4,6.386,6.386,0,0,0,.825,2.037,8.962,8.962,0,0,1,1.2,1.685,4.072,4.072,0,0,1,.178,1.355l.052,3a10.776,10.776,0,0,1-.708,4.665l-1.872,5.694a34.9,34.9,0,0,1-3.874,8.9,2.567,2.567,0,0,1-1.116,1.047,5.421,5.421,0,0,1-1.125.174,2.893,2.893,0,0,0-2.385,2.81,6.6,6.6,0,0,0-1.6-1.637l-3.809-3.04a16.28,16.28,0,0,0-4.243-2.749,11.505,11.505,0,0,0,8-9.668,4.344,4.344,0,0,1,.434-1.9c.317-.513.9-.9.947-1.507.052-.76-.808-1.333-.808-2.094,0-.5.374-.921.539-1.394a3.5,3.5,0,0,0,0-1.785l-.525-2.919a2.229,2.229,0,0,0-.261-.834,5.4,5.4,0,0,0-.651-.686c-.9-1.012-.5-2.606,0-3.852a36.824,36.824,0,0,1,4.439-7.787,26.621,26.621,0,0,0,1.768-2.528c.46-.8.565-1.907,1.051-2.606C880.668,415.522,881.515,417.142,882.049,418.831Z" transform="translate(-822.829 -362.517)"/><path class="f" d="M861.593,504.862a2.094,2.094,0,0,0-.5.521,4.391,4.391,0,0,1-1.968,1.4c.434.313.83.621,1.238.938a54.242,54.242,0,0,1,8.252,7.892c.274-.977,1.911-.908,2.311-1.842a1.8,1.8,0,0,0,.087-.834,25.439,25.439,0,0,0-.625-4.343,4.916,4.916,0,0,0-.869-2.033,5.212,5.212,0,0,0-2.458-1.39C865.7,504.7,862.982,504.023,861.593,504.862Z" transform="translate(-819.446 -413.757)"/><path class="g" d="M843.153,511.431a22.878,22.878,0,0,1-3.909,2.832,14.718,14.718,0,0,0-3.114,1.372,3.094,3.094,0,0,0,2.953,1.6,7.019,7.019,0,0,0,3.305-1.212c.777-.478,1.69-1.034,2.536-.7.13.66-.434,1.281-.434,1.95a1.966,1.966,0,0,0,1.1,1.507c2.606,1.681,5.959,1.542,9.064,1.346a.817.817,0,0,0,.5-.148.786.786,0,0,0,.187-.573c.039-.686.057-1.368.061-2.054a2.945,2.945,0,0,0-1.26-2.9,35.448,35.448,0,0,0-5.429-3.844C846.806,509.5,844.869,510.154,843.153,511.431Z" transform="translate(-806.436 -416.913)"/><path class="i" d="M822.7,326.071a3.016,3.016,0,1,0,3.844,2.536A3.276,3.276,0,0,0,822.7,326.071Zm.656,5.455a2.553,2.553,0,1,1,2.654-2.854A2.78,2.78,0,0,1,823.358,331.526Z" transform="translate(-797.056 -312.829)"/><path class="i" d="M801.062,328.671a3.016,3.016,0,1,0,3.844,2.532A3.275,3.275,0,0,0,801.062,328.671Zm.656,5.451a2.553,2.553,0,1,1,2.654-2.854,2.774,2.774,0,0,1-2.654,2.854Z" transform="translate(-784.815 -314.3)"/><path class="i" d="M663.054,259.64l4.191.895-.413,1.1-3.952-1.16Z" transform="translate(-653.786 -244.43)"/><path class="i" d="M712.036,253.18l-3.866,1.863.664.973,3.566-2.063Z" transform="translate(-679.405 -240.776)"/><path class="i" d="M687.31,260.6l2.94-.352-.152.73-2.523.169Z" transform="translate(-667.605 -244.775)"/><path class="j" d="M790.7,310.462a4.667,4.667,0,0,0,.434-1.9,4.053,4.053,0,0,1,.2-1.155,3.232,3.232,0,0,1,.947-1.212,8.76,8.76,0,0,1,5.212-1.82,12.049,12.049,0,0,1,6.029,1.3,4.691,4.691,0,0,1,1.5,1.112c.608.743.738,1.7,1.351,2.437a3.549,3.549,0,0,0,3.327,1.042,17.3,17.3,0,0,0,.043-2.328,11.26,11.26,0,0,1,.691-1.928,4.74,4.74,0,0,0-2.332-5.473,9,9,0,0,1-2.076-1.3A9.823,9.823,0,0,1,805,297.458a4.743,4.743,0,0,0-5.381-1.559c-.6.226-1.129.569-1.737.812a14.319,14.319,0,0,1-3.657.7,11.2,11.2,0,0,0-3.544.929,3.969,3.969,0,0,0-2.219,2.4c-.117.469-.091.956-.208,1.42-.6,2.358-4.469,3.505-4.686,5.911a3.45,3.45,0,0,0,.986,2.411c.408.482,1.385,1.772,2.076,1.959s1.216-.469,1.876-.695C789.55,311.422,790.179,311.352,790.7,310.462Z" transform="translate(-776.699 -295.621)"/></g><path class="c" d="M912.81,682c0,21.821,13.69,39.48,30.607,39.48" transform="translate(-570.998 -416.625)"/><path class="b" d="M983.28,720.913c0-22.068,15.28-39.923,34.16-39.923" transform="translate(-610.86 -416.054)"/><path class="b" d="M938.35,686.56c0,20.731,8.73,37.5,19.514,37.5" transform="translate(-585.445 -419.205)"/><path class="c" d="M983.28,706.466c0-28.2,17.66-51.016,39.48-51.016" transform="translate(-610.86 -401.607)"/><ellipse class="a" cx="7.609" cy="1.286" rx="7.609" ry="1.286" transform="translate(363.485 309.828)"/><path class="k" d="M968.46,770.5s4.343-.135,5.646-1.064,6.676-2.046,7-.552,6.515,7.431,1.62,7.47-11.388-.764-12.691-1.559S968.46,770.5,968.46,770.5Z" transform="translate(-602.477 -465.358)"/><path class="l" d="M982.819,778.878c-4.9.039-11.384-.764-12.691-1.559-.995-.6-1.39-2.78-1.524-3.779h-.143s.274,3.5,1.581,4.3,7.792,1.6,12.691,1.559c1.416,0,1.9-.517,1.876-1.26C984.413,778.587,983.9,778.869,982.819,778.878Z" transform="translate(-602.477 -468.407)"/><path class="c" d="M148.31,711.36c0,17.373,10.889,31.411,24.348,31.411" transform="translate(-138.542 -433.233)"/><path class="b" d="M204.37,742.312c0-17.556,12.161-31.763,27.176-31.763" transform="translate(-170.253 -432.775)"/><path class="b" d="M168.62,715c0,16.5,6.949,29.838,15.527,29.838" transform="translate(-150.031 -435.292)"/><path class="c" d="M204.37,730.818c0-22.433,14.051-40.588,31.411-40.588" transform="translate(-170.253 -421.281)"/><ellipse class="a" cx="6.055" cy="1.025" rx="6.055" ry="1.025" transform="translate(27.007 313.49)"/><path class="k" d="M192.58,781.726s3.453-.109,4.491-.869,5.316-1.629,5.572-.434,5.19,5.911,1.3,5.942-9.06-.608-10.1-1.238S192.58,781.726,192.58,781.726Z" transform="translate(-163.584 -471.967)"/><path class="l" d="M204,788.468c-3.909.03-9.06-.608-10.1-1.242-.79-.478-1.1-2.211-1.212-3.006h-.113s.217,2.784,1.255,3.418,6.2,1.268,10.1,1.238c1.125,0,1.516-.408,1.494-1C205.271,788.22,204.841,788.442,204,788.468Z" transform="translate(-163.584 -474.448)"/></g></svg>