<svg xmlns="http://www.w3.org/2000/svg" width="348.28" height="297.422" viewBox="0 0 348.28 297.422"><defs><style>.a,.h{fill:#009530;}.a,.c,.e,.j,.m{opacity:0.1;}.b{fill:#65617d;}.d,.e{fill:#333f4f;}.f{fill:#3f3d56;}.g{fill:#fbbebe;}.i{fill:#512e4e;}.k{fill:#e1dee5;}.l{fill:#d9d6df;}.m,.r{fill:#fff;}.n{fill:#2d394a;stroke:#40868e;stroke-miterlimit:10;}.o{opacity:0.8;}.p{fill:#ffd037;}.q{fill:#9d9cb5;}.s{fill:#d3dae1;}</style></defs><g transform="translate(-0.005 0.003)"><path class="a" d="M208.912,45.349c10.46-9.311,26.879-11.219,41.823-10.478,46.944,2.331,89.322,25,125.978,50.632,13.25,9.279,26.331,19.28,34.947,32.061,17.547,26.016,12.333,62.056-12.05,83.485-8.294,7.295-18.353,12.892-28.673,17.837-18.356,8.813-38.163,15.886-59,17.905-14.858,1.432-29.9.269-44.666-1.733-41.268-5.6-81.773-17.98-115.721-39.152-14.89-9.286-28.924-20.831-35.062-35.853s-2.21-34.063,13-42.955c6.288-3.678,13.8-5.336,21.168-6.9,10.833-2.3,21.844-4.559,31.621-9.225,10.1-4.82,22.056-14.145,20.054-24.813C200.185,64.715,198.462,54.66,208.912,45.349Z" transform="translate(-113.71 -34.73)"/><path class="b" d="M499.58,259.5v42.1a18.843,18.843,0,0,0,18.858,18.854h25.139a16.928,16.928,0,0,0,16.938-16.949V259.5a30.468,30.468,0,1,0-60.935,0Z" transform="translate(-361.395 -159.452)"/><path class="c" d="M499.58,259.5v42.1a18.843,18.843,0,0,0,18.858,18.854h25.139a16.928,16.928,0,0,0,16.938-16.949V259.5a30.468,30.468,0,1,0-60.935,0Z" transform="translate(-361.395 -159.452)"/><path class="b" d="M502.11,262.382v40.853a18.285,18.285,0,0,0,18.3,18.292H544.8a16.423,16.423,0,0,0,16.433-16.43V262.382a29.562,29.562,0,1,0-59.123,0Z" transform="translate(-363.019 -161.885)"/><path class="c" d="M522.608,288.164v33.977a16.3,16.3,0,0,0,2.467,8.7,13.4,13.4,0,0,0,11.284,6.514H554.7a12.133,12.133,0,0,0,10.528-6.514,14.683,14.683,0,0,0,1.823-7.162V288.164c0-13.576-9.948-24.584-22.22-24.584a21.131,21.131,0,0,0-15.71,7.2A25.876,25.876,0,0,0,522.608,288.164Z" transform="translate(-376.176 -181.63)"/><circle class="d" cx="3.363" cy="3.363" r="3.363" transform="translate(204.502 219.885)"/><circle class="d" cx="3.363" cy="3.363" r="3.363" transform="translate(198.486 233.041)"/><circle class="d" cx="3.363" cy="3.363" r="3.363" transform="translate(138.493 235.423)"/><circle class="d" cx="3.363" cy="3.363" r="3.363" transform="translate(125.089 218.259)"/><rect class="d" width="4.211" height="26.31" transform="translate(166.393 163.863)"/><rect class="e" width="4.211" height="4.261" transform="translate(166.393 185.915)"/><rect class="d" width="5.837" height="29.193" transform="translate(171.417 216.107) rotate(180)"/><path class="d" d="M463.444,634.875l38.213-1.565v6.138H457.31A6.775,6.775,0,0,1,463.444,634.875Z" transform="translate(-334.262 -418.958)"/><path class="d" d="M619.367,634.875,581.15,633.31v6.138H625.5A6.775,6.775,0,0,0,619.367,634.875Z" transform="translate(-413.754 -418.958)"/><path class="d" d="M528.686,633.969l30.507,15.041a7.721,7.721,0,0,1,4.3,6.929v.455l-35.631-15.534-5.014-.358-29.63,18.919h0a7.728,7.728,0,0,1,3.191-7.338l26.439-18.722Z" transform="translate(-357.265 -418.99)"/><path class="e" d="M578.36,492.32v2.836q1.1.043,2.252.043c.663,0,1.314,0,1.955-.032V492.32Z" transform="translate(-411.964 -328.457)"/><ellipse class="d" cx="15.538" cy="4.544" rx="15.538" ry="4.544" transform="translate(153.111 156.654)"/><path class="d" d="M541.64,476.737a1.847,1.847,0,0,0,.663,1.314,4.147,4.147,0,0,0,.494.408c2.313,1.654,7.878,2.822,14.378,2.822s12.111-1.178,14.414-2.847a3.465,3.465,0,0,0,.329-.258,1.955,1.955,0,0,0,.8-1.432c0-2.507-6.954-4.544-15.542-4.544S541.64,474.227,541.64,476.737Z" transform="translate(-388.393 -315.542)"/><path class="e" d="M541.64,476.737a1.847,1.847,0,0,0,.663,1.314,4.147,4.147,0,0,0,.494.408c2.313,1.654,7.878,2.822,14.378,2.822s12.111-1.178,14.414-2.847a3.465,3.465,0,0,0,.329-.258,1.955,1.955,0,0,0,.8-1.432c0-2.507-6.954-4.544-15.542-4.544S541.64,474.227,541.64,476.737Z" transform="translate(-388.393 -315.542)"/><path class="e" d="M541.27,476.737a1.844,1.844,0,0,0,.662,1.314c1.98-.491,3.348-.9,3.348-.9s13.694.766,26.267,1.028a1.952,1.952,0,0,0,.8-1.432c0-2.507-6.954-4.544-15.542-4.544S541.27,474.227,541.27,476.737Z" transform="translate(-388.156 -315.542)"/><path class="e" d="M511.27,458.65a18.263,18.263,0,0,0,15.015,7.835h24.394a16.419,16.419,0,0,0,14.009-7.835Z" transform="translate(-368.899 -306.845)"/><path class="e" d="M541.64,476.737a1.847,1.847,0,0,0,.663,1.314,4.147,4.147,0,0,0,.494.408,234.077,234.077,0,0,0,28.792-.025,3.49,3.49,0,0,0,.329-.258,1.955,1.955,0,0,0,.8-1.432c0-2.507-6.954-4.544-15.542-4.544S541.64,474.227,541.64,476.737Z" transform="translate(-388.393 -315.542)"/><path class="d" d="M495.239,468.908a235.444,235.444,0,0,0,59.009,0,4.129,4.129,0,0,0,4.147-4.129h0a4.129,4.129,0,0,0-4.129-4.129H495.239a4.129,4.129,0,0,0-4.129,4.129h0A4.129,4.129,0,0,0,495.239,468.908Z" transform="translate(-355.958 -308.128)"/><path class="b" d="M637.6,609.29s4.072,4.168,6.851,4.566,5.063,9.332,1.193,10.027-11.32-2.084-12.412-3.277-5.064-8.236-5.064-8.236Z" transform="translate(-443.936 -403.54)"/><path class="f" d="M558.215,477.8s9.93,18.962,10.127,21.544,8.638,13.522,8.638,13.522l-10.525,13.286s-1.39-3.377-3.771-4.569a3.692,3.692,0,0,1-1.887-3.871s-2.482,0-4.269-2.979-3.971-5.955-3.971-7.237S539.45,492.7,539.45,492.7l.992-14.4,2.682-4.566Z" transform="translate(-386.987 -316.531)"/><path class="c" d="M626.072,479.586l.086.075c1.2,1.074,14.707,13.042,14.707,13.325s4.863,8.34-1.193,15.291-19.957,18.367-19.957,18.367-6.056,4.369-6.851,5.264-12.806,0-5.658-8.143,13.9-17.275,13.9-17.275-11.914-2.865-12.705-4.863,15.685-26.808,15.685-26.808Z" transform="translate(-429.029 -317.224)"/><path class="f" d="M603.839,479.586l.086.075c1.2,1.074,14.707,13.042,14.707,13.325s4.863,8.34-1.193,15.291-19.957,18.367-19.957,18.367-6.056,4.369-6.85,5.264-12.809,0-5.658-8.143,13.9-17.275,13.9-17.275-11.914-2.865-12.709-4.863-16.473-26.314-16.473-26.314l32.168-.494Z" transform="translate(-406.398 -317.224)"/><path class="g" d="M569.12,316.308l1.189,10.822S582.52,332,582.821,331.9s8.14-7.162,6.851-11.817a41.461,41.461,0,0,1-1.074-8.236c-.129-2.654-.111-4.673-.111-4.673s-17.773-6.356-16.183-1.987a8.381,8.381,0,0,1-.251,5.264A24.512,24.512,0,0,1,569.12,316.308Z" transform="translate(-406.032 -207.35)"/><path class="c" d="M577.29,310.413c.107.125.218.243.329.358a11.907,11.907,0,0,0,16.215,1.031c-.136-2.629-.111-4.673-.111-4.673s-17.773-6.356-16.183-1.988A8.4,8.4,0,0,1,577.29,310.413Z" transform="translate(-411.277 -207.324)"/><path class="g" d="M569.12,278.324a11.839,11.839,0,1,0,3.467-8.446A11.911,11.911,0,0,0,569.12,278.324Z" transform="translate(-406.032 -183.446)"/><path class="c" d="M583.287,351.8s4.655-10.342,6.256-10.342,4.075,53.5,4.075,53.5l-24.322.38-1-28.086,4.96-24.881S577.725,352.185,583.287,351.8Z" transform="translate(-405.506 -231.621)"/><path class="c" d="M579.2,354.022s4.655-10.342,6.256-10.342,4.075,53.494,4.075,53.494l-27.6.419,2.281-28.122,4.967-24.9S573.636,354.405,579.2,354.022Z" transform="translate(-401.417 -233.046)"/><path class="b" d="M579.2,352.912s4.655-10.342,6.256-10.342,4.075,53.512,4.075,53.512l-27.6.419,2.281-28.122,4.967-24.9S573.636,353.3,579.2,352.912Z" transform="translate(-401.417 -232.333)"/><path class="c" d="M622.79,331.837a1.93,1.93,0,0,1,2.027-.824c1.192.4,2.084-.695,3.277.4s5.955,2.582,6.851,2.084,4.068,1.69,4.766,2.979,2.976,4.766,2.976,4.766,1.988,2.381,1.69,3.674a3.344,3.344,0,0,0,1.884,3.373c1.189.594,3.581,6.553,3.581,6.553s-.648,7.971,2.03,9.357.695,7.449.695,7.449l-12.663-3-3.581-8.143s1.389,23.832,3.076,26.013a8.73,8.73,0,0,1,1.887,3.581s-6.553,1.389-7.943,2.578-5.064-.3-5.064-.3L624.7,360.7a59.992,59.992,0,0,1-1.289-9.035C623.41,348.593,622.79,331.837,622.79,331.837Z" transform="translate(-440.483 -224.848)"/><path class="h" d="M623.9,331.837a1.93,1.93,0,0,1,2.027-.824c1.193.4,2.084-.695,3.277.4s5.955,2.582,6.85,2.084,4.068,1.69,4.763,2.979,2.979,4.766,2.979,4.766,1.987,2.381,1.69,3.674a3.344,3.344,0,0,0,1.884,3.373c1.189.594,3.581,6.553,3.581,6.553s-.641,7.968,2.041,9.357a2.833,2.833,0,0,1,1.239,2.088,6.238,6.238,0,0,1-6.385,7.327l-6.8-2.822L637.462,360.5s1.389,23.832,3.076,26.013a8.728,8.728,0,0,1,1.887,3.581s-6.553,1.389-7.943,2.578-5.064-.3-5.064-.3L625.837,360.7a59.984,59.984,0,0,1-1.289-9.035C624.548,348.593,623.9,331.837,623.9,331.837Z" transform="translate(-441.195 -224.848)"/><path class="c" d="M675.541,381.66s-1.193,3.277-4.469,2.979S675.541,381.66,675.541,381.66Z" transform="translate(-470.956 -257.425)"/><path class="c" d="M670.6,367.8a4.294,4.294,0,0,0-2.979,2.281C666.828,371.965,670.6,367.8,670.6,367.8Z" transform="translate(-469.19 -248.528)"/><path class="c" d="M657.89,358.37c0,.4-1.393,7.348,0,10.227a14.316,14.316,0,0,1,1.189,6.256Z" transform="translate(-462.616 -242.475)"/><path class="c" d="M540.3,325.349s-.777-.913-1.572-.813a10.677,10.677,0,0,0-2.285.992c-1,.4-3.373.5-3.373.795s-2.088,1.49-3.477,1.791-5.758,3.277-6.851,9.035-2.979,7.445-2.979,7.445l10.525,5.171s-8.14,34.55-9.132,37.032-1.074,17.189-1.074,17.189,6.446,2.865,8.14,3.771.992-8.537,4.469-14,7.445-13.4,7.445-13.4l6.038-16.981s3.875-22.636.6-26.808S540,326.846,540.3,325.349Z" transform="translate(-374.348 -220.753)"/><path class="h" d="M539.213,325.349s-.777-.913-1.572-.813a10.678,10.678,0,0,0-2.285.992c-1,.4-3.373.5-3.373.795s-2.084,1.49-3.477,1.791-5.766,3.273-6.84,9.031-2.976,7.445-2.976,7.445l10.5,5.175s-8.14,34.55-9.132,37.032-1.074,17.189-1.074,17.189,6.446,2.865,8.14,3.771.992-8.573,4.466-14.02,7.445-13.4,7.445-13.4l6.056-16.96s3.875-22.636.6-26.808S538.916,326.846,539.213,325.349Z" transform="translate(-373.662 -220.753)"/><path class="c" d="M513.144,396.746c.294.047.67.093,1.1.133,3.18.29,9.422.358,9.422.358s4.655-9.236,8.638-8.953c0,0-3.674-4.168-5.16-3.671-.251.082-.408-.1-.483-.458-.4-1.791.978-7.878.978-7.878l1.887-8.236L518.6,370.719a29.763,29.763,0,0,0-4.072,1.79s-.1,4.269-.892,5.264-1.687,5.758-1.59,6.947-1.092,6.754.1,8.236S510.68,396.348,513.144,396.746Z" transform="translate(-369.122 -248.682)"/><path class="b" d="M608.406,618.772a13.524,13.524,0,0,1-.1,5.372,19.25,19.25,0,0,0-.1,8.236c.5,1.583,2.184,3.771-2.381,4.763s-7.646.1-7.846-.695-1.189-3.971-.4-5.758,1.074-6.446-.4-9.135-.494-6.851.9-7.345,3.774-1.59,3.774-1.59-2.582,4.655-.2,5.662S608.406,618.772,608.406,618.772Z" transform="translate(-423.578 -405.677)"/><path class="c" d="M569.107,278.339a11.839,11.839,0,0,0,3.255,8.179.415.415,0,0,0,.029-.057,5.214,5.214,0,0,0,.662-2.367,19.806,19.806,0,0,0-.795-2.89,7.582,7.582,0,0,1,.577-3.717c.294-.881.863-1.952,1.79-1.844a2.064,2.064,0,0,0,.548.064c.491-.075.591-.716.648-1.21a5.5,5.5,0,0,1,4.487-4.713,1.39,1.39,0,0,1,.784.054c.358.154.534.526.845.741,1.006.7,2.288-.637,3.513-.534,1.042.086,1.676,1.15,2.106,2.1s.963,2.038,1.984,2.26a.627.627,0,0,0,.483-.054c.315-.233.1-.716-.065-1.074a2.192,2.192,0,0,1,.358-2.367,11.911,11.911,0,0,0-21.218,7.434Z" transform="translate(-406.02 -183.461)"/><path class="i" d="M575.537,253.726c.161.358.383.852.061,1.074a.6.6,0,0,1-.48.054c-1.021-.218-1.558-1.307-1.987-2.26s-1.074-2.016-2.1-2.1c-1.225-.1-2.507,1.232-3.517.534-.308-.215-.5-.587-.842-.741a1.389,1.389,0,0,0-.784-.05,5.5,5.5,0,0,0-4.491,4.709c-.05.491-.154,1.135-.645,1.21a2.045,2.045,0,0,1-.548-.064c-.924-.107-1.49.96-1.791,1.841a7.593,7.593,0,0,0-.577,3.721,19.72,19.72,0,0,1,.795,2.893,5.48,5.48,0,0,1-.662,2.363c-.34.752-.9,1.633-1.719,1.526-.673-.086-1.042-.8-1.364-1.4s-.9-1.235-1.554-1.049c-.294.086-.594.333-.859.183a.627.627,0,0,1-.251-.433c-.319-1.386.14-2.947-.537-4.2a8.25,8.25,0,0,0-2.428-2.17,6.954,6.954,0,0,1-.942-9.955c.917-1.074,2.234-2.02,2.31-3.427.054-1.074-.67-2.059-.677-3.133a3.776,3.776,0,0,1,1.432-2.689,9.25,9.25,0,0,1,8.315-2.192,6.633,6.633,0,0,0,2.328.376,8.131,8.131,0,0,0,2.507-1.139,6.374,6.374,0,0,1,7.954,2.149c.938,1.465,1.307,3.373,2.711,4.4.92.673,2.245.927,2.754,1.948a3.483,3.483,0,0,1,.125,2.02,4.727,4.727,0,0,1-1.511,2.893C575.7,251.506,574.964,252.433,575.537,253.726Z" transform="translate(-391.605 -164.313)"/><g class="j" transform="translate(155.145 78.931)"><path d="M556.191,255.977a5.292,5.292,0,0,1-.211-.827A5.191,5.191,0,0,1,556.191,255.977Z" transform="translate(-552.743 -255.15)"/><path d="M626.053,268.687a3.209,3.209,0,0,0-.2-.53c-.573-1.3.161-2.22,1.017-3.087a4.738,4.738,0,0,0,1.508-2.893,7.176,7.176,0,0,0,.086-.917,1.973,1.973,0,0,1,.186.286,3.484,3.484,0,0,1,.125,2.02,4.727,4.727,0,0,1-1.511,2.893A3.274,3.274,0,0,0,626.053,268.687Z" transform="translate(-597.465 -259.072)"/><path d="M562.741,311.68c.652-.19,1.232.455,1.554,1.049s.691,1.311,1.364,1.4c.817.1,1.379-.777,1.719-1.526a5.418,5.418,0,0,0,.663-2.363,2.773,2.773,0,0,0-.029-.3,5.369,5.369,0,0,1,.426,1.687,5.483,5.483,0,0,1-.662,2.363c-.34.752-.9,1.633-1.719,1.526-.673-.086-1.042-.8-1.364-1.4s-.9-1.235-1.554-1.049c-.294.086-.594.333-.859.183a.626.626,0,0,1-.251-.433,5.493,5.493,0,0,1-.118-.945C562.168,311.988,562.461,311.752,562.741,311.68Z" transform="translate(-556.549 -290.319)"/><path d="M549.056,291.194a8.266,8.266,0,0,1,2.432,2.17,3.447,3.447,0,0,1,.358,1.343,8.588,8.588,0,0,0-2.4-2.124,7.015,7.015,0,0,1-2.507-4.244A6.969,6.969,0,0,0,549.056,291.194Z" transform="translate(-546.94 -276.454)"/><path d="M577.064,283.387a7.808,7.808,0,0,1-.376-1.225,7.6,7.6,0,0,1,.577-3.721c.294-.881.863-1.948,1.791-1.841a2.064,2.064,0,0,0,.548.064c.491-.075.594-.716.645-1.214a5.5,5.5,0,0,1,4.491-4.706,1.357,1.357,0,0,1,.784.05c.358.154.534.526.842.741,1.01.716,2.292-.637,3.517-.534,1.039.086,1.676,1.149,2.106,2.1s.967,2.038,1.984,2.26a.6.6,0,0,0,.48-.054.387.387,0,0,0,.158-.3,2.345,2.345,0,0,0,.179.605c.161.358.383.852.061,1.074a.6.6,0,0,1-.48.054c-1.021-.218-1.558-1.307-1.987-2.26s-1.074-2.016-2.1-2.1c-1.225-.1-2.507,1.232-3.517.534-.308-.215-.5-.587-.842-.741a1.389,1.389,0,0,0-.784-.05,5.5,5.5,0,0,0-4.491,4.709c-.05.491-.154,1.135-.645,1.21a2.048,2.048,0,0,1-.548-.064c-.924-.107-1.49.96-1.791,1.841A8.028,8.028,0,0,0,577.064,283.387Z" transform="translate(-565.992 -265.138)"/></g><path class="c" d="M519,425.763c3.18.29,9.422.358,9.422.358s4.655-9.236,8.638-8.953c0,0-3.674-4.168-5.16-3.671-.251.082-.408-.1-.483-.458-3.889,1.189-11.3,4.093-12.029,9.193C519.179,423.622,519.054,424.782,519,425.763Z" transform="translate(-373.861 -277.568)"/><path class="h" d="M517.85,425.763c3.18.29,9.422.358,9.422.358s4.655-9.236,8.638-8.953c0,0-3.671-4.168-5.16-3.671-.251.082-.4-.1-.483-.458-3.889,1.189-11.3,4.093-12.029,9.193C518.043,423.622,517.922,424.782,517.85,425.763Z" transform="translate(-373.123 -277.568)"/><path class="c" d="M577.024,520.364s-8.953-2.184-10.324-.992S577.024,520.364,577.024,520.364Z" transform="translate(-404.407 -345.593)"/><path class="c" d="M659.744,546.63s-3.771,2.184-4.168,3.971S659.744,546.63,659.744,546.63Z" transform="translate(-461.512 -363.319)"/><path class="c" d="M613.225,658.4s-5.164-.795-6.485.064S613.225,658.4,613.225,658.4Z" transform="translate(-430.084 -434.848)"/><path class="k" d="M481.07,730.875s20.011-1.074,24.888-3.939,11.782-2.865,11.817-2.865l79.678-17.382,33.125-7.878,5.909-.777L616.971,675.7l-.594-.258L587.606,663s-12.892.716-15.438,9.117a10.085,10.085,0,0,0-.358,1.812,10.5,10.5,0,0,0,2.034,7.352,15.614,15.614,0,0,1,2.661,5.1,3.018,3.018,0,0,1-.358,2.578,21.015,21.015,0,0,1-3.538,2.825c-7.015,4.655-24.749,12.326-55.728.577,0,0-13.25-13.071-23.277-7.52S481.07,730.875,481.07,730.875Z" transform="translate(-349.514 -438.016)"/><path class="c" d="M739.043,686.4a3.018,3.018,0,0,1-.358,2.578,21.013,21.013,0,0,1-3.538,2.825l60.312,4.5-16.53-20.86L750.159,663s-12.892.716-15.438,9.117a10.09,10.09,0,0,0-.358,1.812,10.5,10.5,0,0,0,2.034,7.352A16.157,16.157,0,0,1,739.043,686.4Z" transform="translate(-512.066 -438.016)"/><path class="b" d="M709.779,464.31l-49.419,1.074V524.54l46.912,31.8,11.28-10.385-2.328-34.378,2.328-32.05Z" transform="translate(-423.879 -298.041)"/><path class="l" d="M532.614,439.467l-57.7-17.766a8.667,8.667,0,0,0-3.223-.358L333.859,431.406a65.075,65.075,0,0,0-32.824,11.578,54.969,54.969,0,0,0-21.844,30.571,58.371,58.371,0,0,0,.619,32.878l12.158,39.391s-9.132-85.587,82.006-89.884Z" transform="translate(-218.604 -282.881)"/><path class="m" d="M736.357,697.664a15.614,15.614,0,0,1,2.661,5.1c1.561-1.808,1.9-3.85-.358-5.479-2.825-2.056-3.767-5.622-3.979-8.788a10.086,10.086,0,0,0-.358,1.812A10.5,10.5,0,0,0,736.357,697.664Z" transform="translate(-512.04 -454.384)"/><path class="b" d="M336.07,609.091l6.8,23.1,15.4,15.04,19.338,3.939,30.081-5.372V538.9s-5.192-3.4-5.73-3.4-15.04,2.328-15.04,2.328L354.083,561.38l-1.361.978L338.04,584.2Z" transform="translate(-256.439 -356.174)"/><path class="b" d="M417.161,497.81V609.181l-2.9.519V497.81Z" transform="translate(-265.908 -319.544)"/><path class="c" d="M709.779,464.31l-49.419,1.074V524.54l46.912,31.8,11.28-10.385-2.328-34.378,2.328-32.05Z" transform="translate(-423.879 -298.041)"/><path class="c" d="M417.161,497.81V609.181l-2.9.519V497.81Z" transform="translate(-265.908 -319.544)"/><path class="c" d="M384.57,568.818c21.486-17.654,45.372-20.251,54.253-20.573V538.9s-5.193-3.4-5.73-3.4-15.04,2.328-15.04,2.328L385.215,561.38Z" transform="translate(-287.571 -356.174)"/><path class="b" d="M957.532,527.566s-2.217,5.859-4.594,12.681c-2.106,6.063-4.34,12.892-5.253,17.042a12.433,12.433,0,0,1-2.528,4.824c-5.8,7.359-19.159,14.489-21.465,17.021-2.811,3.087-18.621,5.311-18.621,5.311v-95l10.564-3.4h13.429l17.368,7.878,8.953,13.25Z" transform="translate(-621.677 -324.426)"/><path class="g" d="M536.93,428.916c.695.845,21.794,1.042,22.886.795l1.984-.448s10.185,5.483,17.189-3.488c.3-.383.594-.791.881-1.228,7-10.672-16.333-2.865-16.333-2.865s-8.935.05-11.219.05h-.236a40.873,40.873,0,0,1-7.108-1.536S536.239,428.075,536.93,428.916Z" transform="translate(-385.345 -281.347)"/><path class="c" d="M591.365,425.7s8.935.05,11.219.075h.054c.3-.383.594-.791.881-1.228,7-10.672-16.333-2.865-16.333-2.865s-8.935.05-11.219.05h-.236c-.226.294-.448.6-.666.927C567.941,433.239,591.365,425.7,591.365,425.7Z" transform="translate(-408.982 -281.347)"/><path class="g" d="M609.9,420.859s-5.046-1.6-7.33-1.622-11.219-.072-11.219-.072-23.416,7.52-16.3-3.062,18.124-4.516,18.124-4.516l1.988-.426c1.1-.236,22.2.2,22.876,1.049S609.9,420.859,609.9,420.859Z" transform="translate(-408.973 -275.525)"/><path class="h" d="M681.265,409.954s-.143,6.886-4.917,7.28c-10.027.82-7.477-3.055-7.477-3.055l.867-7.714,4.723-4.276s2.073.953,2.342.791S681.265,409.954,681.265,409.954Z" transform="translate(-469.876 -270.603)"/><path class="h" d="M512.021,396.746c.294.047.67.093,1.1.133,3.18.29,9.422.358,9.422.358s4.656-9.236,8.638-8.953c0,0-3.671-4.168-5.16-3.671-.251.082-.4-.1-.483-.458-.394-1.791.978-7.878.978-7.878l1.887-8.236-10.93,2.693a29.671,29.671,0,0,0-4.068,1.79s-.1,4.269-.9,5.264-1.687,5.758-1.59,6.947-1.092,6.754.1,8.236S509.539,396.348,512.021,396.746Z" transform="translate(-368.396 -248.682)"/><path class="c" d="M529,387.76s-9.132.992-9.529,3.277S529,387.76,529,387.76Z" transform="translate(-374.154 -261.341)"/><path class="c" d="M522.2,412.71c-.594.2-4.068,1.092-4.763,3.18S522.2,412.71,522.2,412.71Z" transform="translate(-372.82 -277.356)"/><path class="c" d="M519,426.793c3.18.29,9.422.358,9.422.358s4.655-9.236,8.638-8.953c0,0-3.674-4.168-5.16-3.671-.251.082-.408-.1-.483-.458-3.889,1.189-11.3,4.093-12.029,9.193C519.179,424.652,519.054,425.812,519,426.793Z" transform="translate(-373.861 -278.229)"/><path class="d" d="M685.89,351.32v39.725c0,.684-.358.781-.963,1.114a13.312,13.312,0,0,1-12.938-.043c-.612-.322-.989-.433-.989-1.124V351.564S678.574,354.629,685.89,351.32Z" transform="translate(-471.429 -237.95)"/><ellipse class="n" cx="7.445" cy="1.583" rx="7.445" ry="1.583" transform="translate(199.571 111.762)"/><g class="o" transform="translate(200.08 129.7)"><circle cx="0.168" cy="0.168" r="0.168" transform="translate(13.533)"/><circle cx="0.168" cy="0.168" r="0.168" transform="translate(12.688 0.236)"/><circle cx="0.168" cy="0.168" r="0.168" transform="translate(11.638 0.569)"/><circle cx="0.168" cy="0.168" r="0.168" transform="translate(9.758 0.974)"/><circle cx="0.168" cy="0.168" r="0.168" transform="translate(7.778 1.214)"/><circle cx="0.168" cy="0.168" r="0.168" transform="translate(5.73 1.311)"/><circle cx="0.168" cy="0.168" r="0.168" transform="translate(2.782 0.906)"/><circle cx="0.168" cy="0.168" r="0.168" transform="translate(3.76 1.142)"/><circle cx="0.168" cy="0.168" r="0.168" transform="translate(0.963 0.569)"/><circle cx="0.168" cy="0.168" r="0.168" transform="translate(1.841 0.738)"/><circle cx="0.168" cy="0.168" r="0.168" transform="translate(0 0.236)"/><circle cx="0.168" cy="0.168" r="0.168" transform="translate(10.679 0.809)"/><circle cx="0.168" cy="0.168" r="0.168" transform="translate(8.741 1.142)"/><circle cx="0.168" cy="0.168" r="0.168" transform="translate(6.639 1.311)"/><circle cx="0.168" cy="0.168" r="0.168" transform="translate(4.723 1.311)"/></g><g class="o" transform="translate(200.08 130.52)"><circle cx="0.168" cy="0.168" r="0.168" transform="translate(13.533)"/><circle cx="0.168" cy="0.168" r="0.168" transform="translate(12.688 0.24)"/><circle cx="0.168" cy="0.168" r="0.168" transform="translate(11.638 0.573)"/><circle cx="0.168" cy="0.168" r="0.168" transform="translate(9.758 0.978)"/><circle cx="0.168" cy="0.168" r="0.168" transform="translate(7.778 1.218)"/><circle cx="0.168" cy="0.168" r="0.168" transform="translate(5.73 1.311)"/><circle cx="0.168" cy="0.168" r="0.168" transform="translate(2.782 0.906)"/><circle cx="0.168" cy="0.168" r="0.168" transform="translate(3.76 1.146)"/><circle cx="0.168" cy="0.168" r="0.168" transform="translate(0.963 0.573)"/><circle cx="0.168" cy="0.168" r="0.168" transform="translate(1.841 0.741)"/><circle cx="0.168" cy="0.168" r="0.168" transform="translate(0 0.24)"/><circle cx="0.168" cy="0.168" r="0.168" transform="translate(10.679 0.809)"/><circle cx="0.168" cy="0.168" r="0.168" transform="translate(8.741 1.146)"/><circle cx="0.168" cy="0.168" r="0.168" transform="translate(6.639 1.311)"/><circle cx="0.168" cy="0.168" r="0.168" transform="translate(4.723 1.311)"/></g><g class="o" transform="translate(200.08 131.343)"><circle cx="0.168" cy="0.168" r="0.168" transform="translate(13.533)"/><circle cx="0.168" cy="0.168" r="0.168" transform="translate(12.688 0.236)"/><circle cx="0.168" cy="0.168" r="0.168" transform="translate(11.638 0.569)"/><circle cx="0.168" cy="0.168" r="0.168" transform="translate(9.758 0.974)"/><circle cx="0.168" cy="0.168" r="0.168" transform="translate(7.778 1.214)"/><circle cx="0.168" cy="0.168" r="0.168" transform="translate(5.73 1.311)"/><circle cx="0.168" cy="0.168" r="0.168" transform="translate(2.782 0.906)"/><circle cx="0.168" cy="0.168" r="0.168" transform="translate(3.76 1.142)"/><circle cx="0.168" cy="0.168" r="0.168" transform="translate(0.963 0.569)"/><circle cx="0.168" cy="0.168" r="0.168" transform="translate(1.841 0.738)"/><circle cx="0.168" cy="0.168" r="0.168" transform="translate(0 0.236)"/><circle cx="0.168" cy="0.168" r="0.168" transform="translate(10.679 0.809)"/><circle cx="0.168" cy="0.168" r="0.168" transform="translate(8.741 1.142)"/><circle cx="0.168" cy="0.168" r="0.168" transform="translate(6.639 1.311)"/><circle cx="0.168" cy="0.168" r="0.168" transform="translate(4.723 1.311)"/></g><g class="o" transform="translate(200.08 132.167)"><circle cx="0.168" cy="0.168" r="0.168" transform="translate(13.533)"/><circle cx="0.168" cy="0.168" r="0.168" transform="translate(12.688 0.236)"/><circle cx="0.168" cy="0.168" r="0.168" transform="translate(11.638 0.569)"/><circle cx="0.168" cy="0.168" r="0.168" transform="translate(9.758 0.974)"/><circle cx="0.168" cy="0.168" r="0.168" transform="translate(7.778 1.214)"/><circle cx="0.168" cy="0.168" r="0.168" transform="translate(5.73 1.307)"/><circle cx="0.168" cy="0.168" r="0.168" transform="translate(2.782 0.902)"/><circle cx="0.168" cy="0.168" r="0.168" transform="translate(3.76 1.142)"/><circle cx="0.168" cy="0.168" r="0.168" transform="translate(0.963 0.569)"/><circle cx="0.168" cy="0.168" r="0.168" transform="translate(1.841 0.738)"/><circle cx="0.168" cy="0.168" r="0.168" transform="translate(0 0.236)"/><circle cx="0.168" cy="0.168" r="0.168" transform="translate(10.679 0.806)"/><circle cx="0.168" cy="0.168" r="0.168" transform="translate(8.741 1.142)"/><circle cx="0.168" cy="0.168" r="0.168" transform="translate(6.639 1.307)"/><circle cx="0.168" cy="0.168" r="0.168" transform="translate(4.723 1.307)"/></g><g class="o" transform="translate(200.08 132.987)"><circle cx="0.168" cy="0.168" r="0.168" transform="translate(13.533)"/><circle cx="0.168" cy="0.168" r="0.168" transform="translate(12.688 0.236)"/><circle cx="0.168" cy="0.168" r="0.168" transform="translate(11.638 0.573)"/><circle cx="0.168" cy="0.168" r="0.168" transform="translate(9.758 0.978)"/><circle cx="0.168" cy="0.168" r="0.168" transform="translate(7.778 1.218)"/><circle cx="0.168" cy="0.168" r="0.168" transform="translate(5.73 1.311)"/><circle cx="0.168" cy="0.168" r="0.168" transform="translate(2.782 0.906)"/><circle cx="0.168" cy="0.168" r="0.168" transform="translate(3.76 1.142)"/><circle cx="0.168" cy="0.168" r="0.168" transform="translate(0.963 0.573)"/><circle cx="0.168" cy="0.168" r="0.168" transform="translate(1.841 0.738)"/><circle cx="0.168" cy="0.168" r="0.168" transform="translate(0 0.236)"/><circle cx="0.168" cy="0.168" r="0.168" transform="translate(10.679 0.809)"/><circle cx="0.168" cy="0.168" r="0.168" transform="translate(8.741 1.142)"/><circle cx="0.168" cy="0.168" r="0.168" transform="translate(6.639 1.311)"/><circle cx="0.168" cy="0.168" r="0.168" transform="translate(4.723 1.311)"/></g><g class="o" transform="translate(200.08 133.811)"><circle cx="0.168" cy="0.168" r="0.168" transform="translate(13.533)"/><circle cx="0.168" cy="0.168" r="0.168" transform="translate(12.688 0.236)"/><circle cx="0.168" cy="0.168" r="0.168" transform="translate(11.638 0.569)"/><circle cx="0.168" cy="0.168" r="0.168" transform="translate(9.758 0.974)"/><circle cx="0.168" cy="0.168" r="0.168" transform="translate(7.778 1.214)"/><circle cx="0.168" cy="0.168" r="0.168" transform="translate(5.73 1.307)"/><circle cx="0.168" cy="0.168" r="0.168" transform="translate(2.782 0.902)"/><circle cx="0.168" cy="0.168" r="0.168" transform="translate(3.76 1.142)"/><circle cx="0.168" cy="0.168" r="0.168" transform="translate(0.963 0.569)"/><circle cx="0.168" cy="0.168" r="0.168" transform="translate(1.841 0.738)"/><circle cx="0.168" cy="0.168" r="0.168" transform="translate(0 0.236)"/><circle cx="0.168" cy="0.168" r="0.168" transform="translate(10.679 0.806)"/><circle cx="0.168" cy="0.168" r="0.168" transform="translate(8.741 1.142)"/><circle cx="0.168" cy="0.168" r="0.168" transform="translate(6.639 1.307)"/><circle cx="0.168" cy="0.168" r="0.168" transform="translate(4.723 1.307)"/></g><g class="o" transform="translate(200.08 134.631)"><circle cx="0.168" cy="0.168" r="0.168" transform="translate(13.533)"/><circle cx="0.168" cy="0.168" r="0.168" transform="translate(12.688 0.236)"/><circle cx="0.168" cy="0.168" r="0.168" transform="translate(11.638 0.573)"/><circle cx="0.168" cy="0.168" r="0.168" transform="translate(9.758 0.978)"/><circle cx="0.168" cy="0.168" r="0.168" transform="translate(7.778 1.218)"/><circle cx="0.168" cy="0.168" r="0.168" transform="translate(5.73 1.311)"/><circle cx="0.168" cy="0.168" r="0.168" transform="translate(2.782 0.906)"/><circle cx="0.168" cy="0.168" r="0.168" transform="translate(3.76 1.142)"/><circle cx="0.168" cy="0.168" r="0.168" transform="translate(0.963 0.573)"/><circle cx="0.168" cy="0.168" r="0.168" transform="translate(1.841 0.738)"/><circle cx="0.168" cy="0.168" r="0.168" transform="translate(0 0.236)"/><circle cx="0.168" cy="0.168" r="0.168" transform="translate(10.679 0.809)"/><circle cx="0.168" cy="0.168" r="0.168" transform="translate(8.741 1.142)"/><circle cx="0.168" cy="0.168" r="0.168" transform="translate(6.639 1.311)"/><circle cx="0.168" cy="0.168" r="0.168" transform="translate(4.723 1.311)"/></g><g class="o" transform="translate(200.08 135.454)"><circle cx="0.168" cy="0.168" r="0.168" transform="translate(13.533)"/><circle cx="0.168" cy="0.168" r="0.168" transform="translate(12.688 0.236)"/><circle cx="0.168" cy="0.168" r="0.168" transform="translate(11.638 0.569)"/><circle cx="0.168" cy="0.168" r="0.168" transform="translate(9.758 0.974)"/><circle cx="0.168" cy="0.168" r="0.168" transform="translate(7.778 1.214)"/><circle cx="0.168" cy="0.168" r="0.168" transform="translate(5.73 1.311)"/><circle cx="0.168" cy="0.168" r="0.168" transform="translate(2.782 0.906)"/><circle cx="0.168" cy="0.168" r="0.168" transform="translate(3.76 1.142)"/><circle cx="0.168" cy="0.168" r="0.168" transform="translate(0.963 0.569)"/><circle cx="0.168" cy="0.168" r="0.168" transform="translate(1.841 0.738)"/><circle cx="0.168" cy="0.168" r="0.168" transform="translate(0 0.236)"/><circle cx="0.168" cy="0.168" r="0.168" transform="translate(10.679 0.809)"/><circle cx="0.168" cy="0.168" r="0.168" transform="translate(8.741 1.142)"/><circle cx="0.168" cy="0.168" r="0.168" transform="translate(6.639 1.311)"/><circle cx="0.168" cy="0.168" r="0.168" transform="translate(4.723 1.311)"/></g><g class="o" transform="translate(200.08 136.274)"><circle cx="0.168" cy="0.168" r="0.168" transform="translate(13.533)"/><circle cx="0.168" cy="0.168" r="0.168" transform="translate(12.688 0.236)"/><circle cx="0.168" cy="0.168" r="0.168" transform="translate(11.638 0.573)"/><circle cx="0.168" cy="0.168" r="0.168" transform="translate(9.758 0.978)"/><circle cx="0.168" cy="0.168" r="0.168" transform="translate(7.778 1.218)"/><circle cx="0.168" cy="0.168" r="0.168" transform="translate(5.73 1.311)"/><circle cx="0.168" cy="0.168" r="0.168" transform="translate(2.782 0.906)"/><circle cx="0.168" cy="0.168" r="0.168" transform="translate(3.76 1.142)"/><circle cx="0.168" cy="0.168" r="0.168" transform="translate(0.963 0.573)"/><circle cx="0.168" cy="0.168" r="0.168" transform="translate(1.841 0.738)"/><circle cx="0.168" cy="0.168" r="0.168" transform="translate(0 0.236)"/><circle cx="0.168" cy="0.168" r="0.168" transform="translate(10.679 0.809)"/><circle cx="0.168" cy="0.168" r="0.168" transform="translate(8.741 1.142)"/><circle cx="0.168" cy="0.168" r="0.168" transform="translate(6.639 1.311)"/><circle cx="0.168" cy="0.168" r="0.168" transform="translate(4.723 1.311)"/></g><g class="o" transform="translate(200.08 137.098)"><circle cx="0.168" cy="0.168" r="0.168" transform="translate(13.533)"/><circle cx="0.168" cy="0.168" r="0.168" transform="translate(12.688 0.236)"/><circle cx="0.168" cy="0.168" r="0.168" transform="translate(11.638 0.569)"/><circle cx="0.168" cy="0.168" r="0.168" transform="translate(9.758 0.974)"/><circle cx="0.168" cy="0.168" r="0.168" transform="translate(7.778 1.214)"/><circle cx="0.168" cy="0.168" r="0.168" transform="translate(5.73 1.311)"/><circle cx="0.168" cy="0.168" r="0.168" transform="translate(2.782 0.906)"/><circle cx="0.168" cy="0.168" r="0.168" transform="translate(3.76 1.142)"/><circle cx="0.168" cy="0.168" r="0.168" transform="translate(0.963 0.569)"/><circle cx="0.168" cy="0.168" r="0.168" transform="translate(1.841 0.738)"/><circle cx="0.168" cy="0.168" r="0.168" transform="translate(0 0.236)"/><circle cx="0.168" cy="0.168" r="0.168" transform="translate(10.679 0.809)"/><circle cx="0.168" cy="0.168" r="0.168" transform="translate(8.741 1.142)"/><circle cx="0.168" cy="0.168" r="0.168" transform="translate(6.639 1.311)"/><circle cx="0.168" cy="0.168" r="0.168" transform="translate(4.723 1.311)"/></g><g class="o" transform="translate(200.08 137.918)"><circle cx="0.168" cy="0.168" r="0.168" transform="translate(13.533)"/><circle cx="0.168" cy="0.168" r="0.168" transform="translate(12.688 0.24)"/><circle cx="0.168" cy="0.168" r="0.168" transform="translate(11.638 0.573)"/><circle cx="0.168" cy="0.168" r="0.168" transform="translate(9.758 0.978)"/><circle cx="0.168" cy="0.168" r="0.168" transform="translate(7.778 1.218)"/><circle cx="0.168" cy="0.168" r="0.168" transform="translate(5.73 1.311)"/><circle cx="0.168" cy="0.168" r="0.168" transform="translate(2.782 0.906)"/><circle cx="0.168" cy="0.168" r="0.168" transform="translate(3.76 1.146)"/><circle cx="0.168" cy="0.168" r="0.168" transform="translate(0.963 0.573)"/><circle cx="0.168" cy="0.168" r="0.168" transform="translate(1.841 0.741)"/><circle cx="0.168" cy="0.168" r="0.168" transform="translate(0 0.24)"/><circle cx="0.168" cy="0.168" r="0.168" transform="translate(10.679 0.809)"/><circle cx="0.168" cy="0.168" r="0.168" transform="translate(8.741 1.146)"/><circle cx="0.168" cy="0.168" r="0.168" transform="translate(6.639 1.311)"/><circle cx="0.168" cy="0.168" r="0.168" transform="translate(4.723 1.311)"/></g><g class="o" transform="translate(200.08 138.742)"><circle cx="0.168" cy="0.168" r="0.168" transform="translate(13.533)"/><circle cx="0.168" cy="0.168" r="0.168" transform="translate(12.688 0.236)"/><circle cx="0.168" cy="0.168" r="0.168" transform="translate(11.638 0.569)"/><circle cx="0.168" cy="0.168" r="0.168" transform="translate(9.758 0.974)"/><circle cx="0.168" cy="0.168" r="0.168" transform="translate(7.778 1.214)"/><circle cx="0.168" cy="0.168" r="0.168" transform="translate(5.73 1.311)"/><circle cx="0.168" cy="0.168" r="0.168" transform="translate(2.782 0.906)"/><circle cx="0.168" cy="0.168" r="0.168" transform="translate(3.76 1.142)"/><circle cx="0.168" cy="0.168" r="0.168" transform="translate(0.963 0.569)"/><circle cx="0.168" cy="0.168" r="0.168" transform="translate(1.841 0.738)"/><circle cx="0.168" cy="0.168" r="0.168" transform="translate(0 0.236)"/><circle cx="0.168" cy="0.168" r="0.168" transform="translate(10.679 0.809)"/><circle cx="0.168" cy="0.168" r="0.168" transform="translate(8.741 1.142)"/><circle cx="0.168" cy="0.168" r="0.168" transform="translate(6.639 1.311)"/><circle cx="0.168" cy="0.168" r="0.168" transform="translate(4.723 1.311)"/></g><g class="o" transform="translate(200.08 139.565)"><circle cx="0.168" cy="0.168" r="0.168" transform="translate(13.533)"/><circle cx="0.168" cy="0.168" r="0.168" transform="translate(12.688 0.236)"/><circle cx="0.168" cy="0.168" r="0.168" transform="translate(11.638 0.569)"/><circle cx="0.168" cy="0.168" r="0.168" transform="translate(9.758 0.974)"/><circle cx="0.168" cy="0.168" r="0.168" transform="translate(7.778 1.214)"/><circle cx="0.168" cy="0.168" r="0.168" transform="translate(5.73 1.307)"/><circle cx="0.168" cy="0.168" r="0.168" transform="translate(2.782 0.902)"/><circle cx="0.168" cy="0.168" r="0.168" transform="translate(3.76 1.142)"/><circle cx="0.168" cy="0.168" r="0.168" transform="translate(0.963 0.569)"/><circle cx="0.168" cy="0.168" r="0.168" transform="translate(1.841 0.738)"/><circle cx="0.168" cy="0.168" r="0.168" transform="translate(0 0.236)"/><circle cx="0.168" cy="0.168" r="0.168" transform="translate(10.679 0.806)"/><circle cx="0.168" cy="0.168" r="0.168" transform="translate(8.741 1.142)"/><circle cx="0.168" cy="0.168" r="0.168" transform="translate(6.639 1.307)"/><circle cx="0.168" cy="0.168" r="0.168" transform="translate(4.723 1.307)"/></g><g class="o" transform="translate(200.08 140.385)"><circle cx="0.168" cy="0.168" r="0.168" transform="translate(13.533)"/><circle cx="0.168" cy="0.168" r="0.168" transform="translate(12.688 0.236)"/><circle cx="0.168" cy="0.168" r="0.168" transform="translate(11.638 0.573)"/><circle cx="0.168" cy="0.168" r="0.168" transform="translate(9.758 0.978)"/><circle cx="0.168" cy="0.168" r="0.168" transform="translate(7.778 1.218)"/><circle cx="0.168" cy="0.168" r="0.168" transform="translate(5.73 1.311)"/><circle cx="0.168" cy="0.168" r="0.168" transform="translate(2.782 0.906)"/><circle cx="0.168" cy="0.168" r="0.168" transform="translate(3.76 1.142)"/><circle cx="0.168" cy="0.168" r="0.168" transform="translate(0.963 0.573)"/><circle cx="0.168" cy="0.168" r="0.168" transform="translate(1.841 0.738)"/><circle cx="0.168" cy="0.168" r="0.168" transform="translate(0 0.236)"/><circle cx="0.168" cy="0.168" r="0.168" transform="translate(10.679 0.809)"/><circle cx="0.168" cy="0.168" r="0.168" transform="translate(8.741 1.142)"/><circle cx="0.168" cy="0.168" r="0.168" transform="translate(6.639 1.311)"/><circle cx="0.168" cy="0.168" r="0.168" transform="translate(4.723 1.311)"/></g><g class="o" transform="translate(200.08 141.209)"><circle cx="0.168" cy="0.168" r="0.168" transform="translate(13.533)"/><circle cx="0.168" cy="0.168" r="0.168" transform="translate(12.688 0.236)"/><circle cx="0.168" cy="0.168" r="0.168" transform="translate(11.638 0.569)"/><circle cx="0.168" cy="0.168" r="0.168" transform="translate(9.758 0.974)"/><circle cx="0.168" cy="0.168" r="0.168" transform="translate(7.778 1.214)"/><circle cx="0.168" cy="0.168" r="0.168" transform="translate(5.73 1.307)"/><circle cx="0.168" cy="0.168" r="0.168" transform="translate(2.782 0.902)"/><circle cx="0.168" cy="0.168" r="0.168" transform="translate(3.76 1.142)"/><circle cx="0.168" cy="0.168" r="0.168" transform="translate(0.963 0.569)"/><circle cx="0.168" cy="0.168" r="0.168" transform="translate(1.841 0.738)"/><circle cx="0.168" cy="0.168" r="0.168" transform="translate(0 0.236)"/><circle cx="0.168" cy="0.168" r="0.168" transform="translate(10.679 0.806)"/><circle cx="0.168" cy="0.168" r="0.168" transform="translate(8.741 1.142)"/><circle cx="0.168" cy="0.168" r="0.168" transform="translate(6.639 1.307)"/><circle cx="0.168" cy="0.168" r="0.168" transform="translate(4.723 1.307)"/></g><g class="o" transform="translate(200.08 142.029)"><circle cx="0.168" cy="0.168" r="0.168" transform="translate(13.533)"/><circle cx="0.168" cy="0.168" r="0.168" transform="translate(12.688 0.236)"/><circle cx="0.168" cy="0.168" r="0.168" transform="translate(11.638 0.573)"/><circle cx="0.168" cy="0.168" r="0.168" transform="translate(9.758 0.978)"/><circle cx="0.168" cy="0.168" r="0.168" transform="translate(7.778 1.218)"/><circle cx="0.168" cy="0.168" r="0.168" transform="translate(5.73 1.311)"/><circle cx="0.168" cy="0.168" r="0.168" transform="translate(2.782 0.906)"/><circle cx="0.168" cy="0.168" r="0.168" transform="translate(3.76 1.142)"/><circle cx="0.168" cy="0.168" r="0.168" transform="translate(0.963 0.573)"/><circle cx="0.168" cy="0.168" r="0.168" transform="translate(1.841 0.738)"/><circle cx="0.168" cy="0.168" r="0.168" transform="translate(0 0.236)"/><circle cx="0.168" cy="0.168" r="0.168" transform="translate(10.679 0.809)"/><circle cx="0.168" cy="0.168" r="0.168" transform="translate(8.741 1.142)"/><circle cx="0.168" cy="0.168" r="0.168" transform="translate(6.639 1.311)"/><circle cx="0.168" cy="0.168" r="0.168" transform="translate(4.723 1.311)"/></g><g class="o" transform="translate(200.08 142.853)"><circle cx="0.168" cy="0.168" r="0.168" transform="translate(13.533)"/><circle cx="0.168" cy="0.168" r="0.168" transform="translate(12.688 0.236)"/><circle cx="0.168" cy="0.168" r="0.168" transform="translate(11.638 0.569)"/><circle cx="0.168" cy="0.168" r="0.168" transform="translate(9.758 0.974)"/><circle cx="0.168" cy="0.168" r="0.168" transform="translate(7.778 1.214)"/><circle cx="0.168" cy="0.168" r="0.168" transform="translate(5.73 1.311)"/><circle cx="0.168" cy="0.168" r="0.168" transform="translate(2.782 0.906)"/><circle cx="0.168" cy="0.168" r="0.168" transform="translate(3.76 1.142)"/><circle cx="0.168" cy="0.168" r="0.168" transform="translate(0.963 0.569)"/><circle cx="0.168" cy="0.168" r="0.168" transform="translate(1.841 0.738)"/><circle cx="0.168" cy="0.168" r="0.168" transform="translate(0 0.236)"/><circle cx="0.168" cy="0.168" r="0.168" transform="translate(10.679 0.809)"/><circle cx="0.168" cy="0.168" r="0.168" transform="translate(8.741 1.142)"/><circle cx="0.168" cy="0.168" r="0.168" transform="translate(6.639 1.311)"/><circle cx="0.168" cy="0.168" r="0.168" transform="translate(4.723 1.311)"/></g><g class="o" transform="translate(200.08 143.673)"><circle cx="0.168" cy="0.168" r="0.168" transform="translate(13.533)"/><circle cx="0.168" cy="0.168" r="0.168" transform="translate(12.688 0.236)"/><circle cx="0.168" cy="0.168" r="0.168" transform="translate(11.638 0.573)"/><circle cx="0.168" cy="0.168" r="0.168" transform="translate(9.758 0.978)"/><circle cx="0.168" cy="0.168" r="0.168" transform="translate(7.778 1.218)"/><circle cx="0.168" cy="0.168" r="0.168" transform="translate(5.73 1.311)"/><circle cx="0.168" cy="0.168" r="0.168" transform="translate(2.782 0.906)"/><circle cx="0.168" cy="0.168" r="0.168" transform="translate(3.76 1.142)"/><circle cx="0.168" cy="0.168" r="0.168" transform="translate(0.963 0.573)"/><circle cx="0.168" cy="0.168" r="0.168" transform="translate(1.841 0.738)"/><circle cx="0.168" cy="0.168" r="0.168" transform="translate(0 0.236)"/><circle cx="0.168" cy="0.168" r="0.168" transform="translate(10.679 0.809)"/><circle cx="0.168" cy="0.168" r="0.168" transform="translate(8.741 1.142)"/><circle cx="0.168" cy="0.168" r="0.168" transform="translate(6.639 1.311)"/><circle cx="0.168" cy="0.168" r="0.168" transform="translate(4.723 1.311)"/></g><g class="o" transform="translate(200.08 144.497)"><circle cx="0.168" cy="0.168" r="0.168" transform="translate(13.533)"/><circle cx="0.168" cy="0.168" r="0.168" transform="translate(12.688 0.236)"/><circle cx="0.168" cy="0.168" r="0.168" transform="translate(11.638 0.569)"/><circle cx="0.168" cy="0.168" r="0.168" transform="translate(9.758 0.974)"/><circle cx="0.168" cy="0.168" r="0.168" transform="translate(7.778 1.214)"/><circle cx="0.168" cy="0.168" r="0.168" transform="translate(5.73 1.311)"/><circle cx="0.168" cy="0.168" r="0.168" transform="translate(2.782 0.906)"/><circle cx="0.168" cy="0.168" r="0.168" transform="translate(3.76 1.142)"/><circle cx="0.168" cy="0.168" r="0.168" transform="translate(0.963 0.569)"/><circle cx="0.168" cy="0.168" r="0.168" transform="translate(1.841 0.738)"/><circle cx="0.168" cy="0.168" r="0.168" transform="translate(0 0.236)"/><circle cx="0.168" cy="0.168" r="0.168" transform="translate(10.679 0.809)"/><circle cx="0.168" cy="0.168" r="0.168" transform="translate(8.741 1.142)"/><circle cx="0.168" cy="0.168" r="0.168" transform="translate(6.639 1.311)"/><circle cx="0.168" cy="0.168" r="0.168" transform="translate(4.723 1.311)"/></g><g class="o" transform="translate(200.08 145.317)"><circle cx="0.168" cy="0.168" r="0.168" transform="translate(13.533)"/><circle cx="0.168" cy="0.168" r="0.168" transform="translate(12.688 0.24)"/><circle cx="0.168" cy="0.168" r="0.168" transform="translate(11.638 0.573)"/><circle cx="0.168" cy="0.168" r="0.168" transform="translate(9.758 0.978)"/><circle cx="0.168" cy="0.168" r="0.168" transform="translate(7.778 1.218)"/><circle cx="0.168" cy="0.168" r="0.168" transform="translate(5.73 1.311)"/><circle cx="0.168" cy="0.168" r="0.168" transform="translate(2.782 0.906)"/><circle cx="0.168" cy="0.168" r="0.168" transform="translate(3.76 1.146)"/><circle cx="0.168" cy="0.168" r="0.168" transform="translate(0.963 0.573)"/><circle cx="0.168" cy="0.168" r="0.168" transform="translate(1.841 0.741)"/><circle cx="0.168" cy="0.168" r="0.168" transform="translate(0 0.24)"/><circle cx="0.168" cy="0.168" r="0.168" transform="translate(10.679 0.809)"/><circle cx="0.168" cy="0.168" r="0.168" transform="translate(8.741 1.146)"/><circle cx="0.168" cy="0.168" r="0.168" transform="translate(6.639 1.311)"/><circle cx="0.168" cy="0.168" r="0.168" transform="translate(4.723 1.311)"/></g><g class="o" transform="translate(200.08 146.14)"><circle cx="0.168" cy="0.168" r="0.168" transform="translate(13.533)"/><circle cx="0.168" cy="0.168" r="0.168" transform="translate(12.688 0.236)"/><circle cx="0.168" cy="0.168" r="0.168" transform="translate(11.638 0.569)"/><circle cx="0.168" cy="0.168" r="0.168" transform="translate(9.758 0.974)"/><circle cx="0.168" cy="0.168" r="0.168" transform="translate(7.778 1.214)"/><circle cx="0.168" cy="0.168" r="0.168" transform="translate(5.73 1.311)"/><circle cx="0.168" cy="0.168" r="0.168" transform="translate(2.782 0.906)"/><circle cx="0.168" cy="0.168" r="0.168" transform="translate(3.76 1.142)"/><circle cx="0.168" cy="0.168" r="0.168" transform="translate(0.963 0.569)"/><circle cx="0.168" cy="0.168" r="0.168" transform="translate(1.841 0.738)"/><circle cx="0.168" cy="0.168" r="0.168" transform="translate(0 0.236)"/><circle cx="0.168" cy="0.168" r="0.168" transform="translate(10.679 0.809)"/><circle cx="0.168" cy="0.168" r="0.168" transform="translate(8.741 1.142)"/><circle cx="0.168" cy="0.168" r="0.168" transform="translate(6.639 1.311)"/><circle cx="0.168" cy="0.168" r="0.168" transform="translate(4.723 1.311)"/></g><g class="o" transform="translate(200.08 146.96)"><circle cx="0.168" cy="0.168" r="0.168" transform="translate(13.533)"/><circle cx="0.168" cy="0.168" r="0.168" transform="translate(12.688 0.24)"/><circle cx="0.168" cy="0.168" r="0.168" transform="translate(11.638 0.573)"/><circle cx="0.168" cy="0.168" r="0.168" transform="translate(9.758 0.978)"/><circle cx="0.168" cy="0.168" r="0.168" transform="translate(7.778 1.218)"/><circle cx="0.168" cy="0.168" r="0.168" transform="translate(5.73 1.311)"/><circle cx="0.168" cy="0.168" r="0.168" transform="translate(2.782 0.906)"/><circle cx="0.168" cy="0.168" r="0.168" transform="translate(3.76 1.146)"/><circle cx="0.168" cy="0.168" r="0.168" transform="translate(0.963 0.573)"/><circle cx="0.168" cy="0.168" r="0.168" transform="translate(1.841 0.741)"/><circle cx="0.168" cy="0.168" r="0.168" transform="translate(0 0.24)"/><circle cx="0.168" cy="0.168" r="0.168" transform="translate(10.679 0.809)"/><circle cx="0.168" cy="0.168" r="0.168" transform="translate(8.741 1.146)"/><circle cx="0.168" cy="0.168" r="0.168" transform="translate(6.639 1.311)"/><circle cx="0.168" cy="0.168" r="0.168" transform="translate(4.723 1.311)"/></g><g class="o" transform="translate(200.08 147.784)"><circle cx="0.168" cy="0.168" r="0.168" transform="translate(13.533)"/><circle cx="0.168" cy="0.168" r="0.168" transform="translate(12.688 0.236)"/><circle cx="0.168" cy="0.168" r="0.168" transform="translate(11.638 0.573)"/><circle cx="0.168" cy="0.168" r="0.168" transform="translate(9.758 0.978)"/><circle cx="0.168" cy="0.168" r="0.168" transform="translate(7.778 1.218)"/><circle cx="0.168" cy="0.168" r="0.168" transform="translate(5.73 1.311)"/><circle cx="0.168" cy="0.168" r="0.168" transform="translate(2.782 0.906)"/><circle cx="0.168" cy="0.168" r="0.168" transform="translate(3.76 1.142)"/><circle cx="0.168" cy="0.168" r="0.168" transform="translate(0.963 0.573)"/><circle cx="0.168" cy="0.168" r="0.168" transform="translate(1.841 0.738)"/><circle cx="0.168" cy="0.168" r="0.168" transform="translate(0 0.236)"/><circle cx="0.168" cy="0.168" r="0.168" transform="translate(10.679 0.809)"/><circle cx="0.168" cy="0.168" r="0.168" transform="translate(8.741 1.142)"/><circle cx="0.168" cy="0.168" r="0.168" transform="translate(6.639 1.311)"/><circle cx="0.168" cy="0.168" r="0.168" transform="translate(4.723 1.311)"/></g><g class="o" transform="translate(200.08 148.608)"><circle cx="0.168" cy="0.168" r="0.168" transform="translate(13.533)"/><circle cx="0.168" cy="0.168" r="0.168" transform="translate(12.688 0.236)"/><circle cx="0.168" cy="0.168" r="0.168" transform="translate(11.638 0.569)"/><circle cx="0.168" cy="0.168" r="0.168" transform="translate(9.758 0.974)"/><circle cx="0.168" cy="0.168" r="0.168" transform="translate(7.778 1.214)"/><circle cx="0.168" cy="0.168" r="0.168" transform="translate(5.73 1.307)"/><circle cx="0.168" cy="0.168" r="0.168" transform="translate(2.782 0.902)"/><circle cx="0.168" cy="0.168" r="0.168" transform="translate(3.76 1.142)"/><circle cx="0.168" cy="0.168" r="0.168" transform="translate(0.963 0.569)"/><circle cx="0.168" cy="0.168" r="0.168" transform="translate(1.841 0.738)"/><circle cx="0.168" cy="0.168" r="0.168" transform="translate(0 0.236)"/><circle cx="0.168" cy="0.168" r="0.168" transform="translate(10.679 0.806)"/><circle cx="0.168" cy="0.168" r="0.168" transform="translate(8.741 1.142)"/><circle cx="0.168" cy="0.168" r="0.168" transform="translate(6.639 1.307)"/><circle cx="0.168" cy="0.168" r="0.168" transform="translate(4.723 1.307)"/></g><circle class="a" cx="7.746" cy="7.746" r="7.746" transform="translate(286.974 25.509)"/><circle class="a" cx="6.091" cy="6.091" r="6.091" transform="translate(323.006 46.143)"/><circle class="a" cx="2.149" cy="2.149" r="2.149" transform="translate(343.988 20.732)"/><path class="h" d="M225.269,724.25s2.553,3.341-1.178,8.383-6.8,9.311-5.569,12.448c0,0,5.633-9.368,10.22-9.5S230.333,729.89,225.269,724.25Z" transform="translate(-180.807 -477.332)"/><path class="c" d="M225.523,724.25a4.114,4.114,0,0,1,.523,1.046c4.473,5.257,6.858,10.163,2.557,10.288-4.007.115-8.813,7.277-9.962,9.085a3.261,3.261,0,0,0,.136.412s5.633-9.368,10.22-9.5S230.586,729.89,225.523,724.25Z" transform="translate(-181.061 -477.332)"/><path class="p" d="M250.067,734.789c0,1.175-.133,2.127-.294,2.127s-.294-.953-.294-2.127.165-.623.326-.623S250.067,733.611,250.067,734.789Z" transform="translate(-200.857 -483.613)"/><path class="p" d="M252.059,738.614c-1.031.562-1.93.9-2.009.759s.695-.716,1.73-1.278.623-.154.716,0S253.094,738.051,252.059,738.614Z" transform="translate(-201.219 -486.034)"/><path class="h" d="M189.9,724.25s-2.553,3.341,1.178,8.383,6.8,9.311,5.572,12.448c0,0-5.637-9.368-10.22-9.5S184.851,729.89,189.9,724.25Z" transform="translate(-158.932 -477.332)"/><path class="c" d="M189.9,724.25a4.114,4.114,0,0,0-.523,1.046c-4.473,5.257-6.858,10.163-2.557,10.288,4.007.115,8.813,7.277,9.966,9.085a3.955,3.955,0,0,1-.136.412s-5.637-9.368-10.22-9.5S184.851,729.89,189.9,724.25Z" transform="translate(-158.932 -477.332)"/><path class="p" d="M186.91,734.789c0,1.175.133,2.127.294,2.127s.294-.953.294-2.127-.165-.623-.326-.623S186.91,733.611,186.91,734.789Z" transform="translate(-160.694 -483.613)"/><path class="p" d="M181.21,738.614c1.031.562,1.93.9,2.009.759s-.695-.716-1.73-1.278-.623-.154-.716,0S180.175,738.051,181.21,738.614Z" transform="translate(-156.622 -486.034)"/><ellipse class="a" cx="26.715" cy="4.1" rx="26.715" ry="4.1" transform="matrix(0.998, -0.071, 0.071, 0.998, 10.752, 287.016)"/><path class="b" d="M208.109,767.051l-.129,1.042-.179,1.476-.072.612-.179,1.475-.079.616-.179,1.472L205.247,790.5c-.183,1.5-2.625,2.661-5.576,2.661H189.047c-2.951,0-5.389-1.164-5.572-2.661l-2.048-16.759-.179-1.472-.075-.616-.183-1.475-.072-.612-.179-1.476-.129-1.042c-.1-.849,1.221-1.561,2.89-1.561h21.723C206.887,765.49,208.212,766.2,208.109,767.051Z" transform="translate(-156.646 -503.804)"/><path class="q" d="M94.5,738.04l-.179,1.472H67.439l-.179-1.472Z" transform="translate(-43.171 -473.747)"/><path class="q" d="M94.706,743.87l-.179,1.475H68.153l-.183-1.475Z" transform="translate(-43.626 -477.489)"/><path class="q" d="M94.91,749.7l-.179,1.472H68.869L68.69,749.7Z" transform="translate(-44.089 -481.231)"/><path class="c" d="M674.96,403.44l9.783.5-16.125,5.078-8.258-.476Z" transform="translate(-423.879 -258.969)"/><path class="r" d="M674.943,402.25l9.783.5L668.6,407.829l-8.258-.48Z" transform="translate(-423.866 -258.205)"/><path class="s" d="M811.61,439.99c.383-.168.8.136,1.21.208.236.043.48,0,.716.036.48.057.96.358,1.432.2Z" transform="translate(-561.686 -294.835)"/><path class="s" d="M810.21,440.83c.383-.168.8.136,1.21.208.236.043.48,0,.716.036.48.057.96.358,1.414.2Z" transform="translate(-560.787 -295.374)"/><path class="s" d="M807,442.51c.383-.168.8.136,1.214.208.233.043.476,0,.716.036.48.057.96.358,1.432.2Z" transform="translate(-558.727 -296.453)"/><path class="h" d="M875.869,432.82s-1.225,5.7,4.222,6.374l.337-.63S876.2,434.593,875.869,432.82Z" transform="translate(-602.858 -290.264)"/><path class="h" d="M885.17,433.373l-1.268.269-.125.025s-3.381-2.743-3.338-8.867a15.123,15.123,0,0,0,1.615,2.553C883.394,429.126,884.916,431.493,885.17,433.373Z" transform="translate(-605.867 -285.116)"/><path class="h" d="M889.446,430.18a.8.8,0,0,1-.68.086c-3.252-.759-2.149-11.355-2.149-11.355.179.086.376,1.432,1.124,3.173C889.048,425.141,890.492,429.41,889.446,430.18Z" transform="translate(-609.717 -281.336)"/><path class="h" d="M905.012,432.82s.211,5.7-5.236,6.374l-.337-.63S904.654,434.593,905.012,432.82Z" transform="translate(-618.063 -290.264)"/><path class="h" d="M900.331,424.8a10.544,10.544,0,0,1-4.347,8.867l-.129-.025-1.264-.269c.251-1.88,1.791-4.247,3.112-6.02A13.783,13.783,0,0,1,900.331,424.8Z" transform="translate(-614.95 -285.116)"/><path class="h" d="M894.449,429.625a2.056,2.056,0,0,1-.716.555h0a1.378,1.378,0,0,1-.269.086c-.8.19-1.074-.39-1.031-1.368a25.31,25.31,0,0,1,2.149-7.037,8.784,8.784,0,0,1,2.041-2.951S896.572,427.179,894.449,429.625Z" transform="translate(-613.563 -281.336)"/><path class="h" d="M892.349,408.53s-3.631,12.892-.505,14.822S893.151,409.672,892.349,408.53Z" transform="translate(-612.373 -274.673)"/><path class="c" d="M875.869,432.82s-1.225,5.7,4.222,6.374l.337-.63S876.2,434.593,875.869,432.82Z" transform="translate(-602.858 -290.264)"/><path class="c" d="M885.17,433.373l-1.268.269-.125.025s-3.381-2.743-3.338-8.867a15.123,15.123,0,0,0,1.615,2.553C883.394,429.126,884.916,431.493,885.17,433.373Z" transform="translate(-605.867 -285.116)"/><path class="c" d="M889.446,430.18a.8.8,0,0,1-.68.086c-3.252-.759-2.149-11.355-2.149-11.355.179.086.376,1.432,1.124,3.173C889.048,425.141,890.492,429.41,889.446,430.18Z" transform="translate(-609.717 -281.336)"/><path class="c" d="M905.012,432.82s.211,5.7-5.236,6.374l-.337-.63S904.654,434.593,905.012,432.82Z" transform="translate(-618.063 -290.264)"/><path class="c" d="M900.331,424.8a10.544,10.544,0,0,1-4.347,8.867l-.129-.025-1.264-.269c.251-1.88,1.791-4.247,3.112-6.02A13.783,13.783,0,0,1,900.331,424.8Z" transform="translate(-614.95 -285.116)"/><path class="c" d="M894.449,429.625a2.056,2.056,0,0,1-.716.555h0a1.378,1.378,0,0,1-.269.086c-.8.19-1.074-.39-1.031-1.368a25.31,25.31,0,0,1,2.149-7.037,8.784,8.784,0,0,1,2.041-2.951S896.572,427.179,894.449,429.625Z" transform="translate(-613.563 -281.336)"/><path class="c" d="M892.349,408.53s-3.631,12.892-.505,14.822S893.151,409.672,892.349,408.53Z" transform="translate(-612.373 -274.673)"/><path class="h" d="M876.024,432.82s-.716,5.7,4.727,6.374l.337-.63S876.354,434.593,876.024,432.82Z" transform="translate(-603.013 -290.264)"/><path class="h" d="M885.675,433.373l-1.268.269-.125.025s-3.885-2.743-3.843-8.867c0,0,1,1.074,2.12,2.553C883.9,429.126,885.421,431.493,885.675,433.373Z" transform="translate(-605.867 -285.116)"/><path class="c" d="M889.476,437.95l-1.268.269c-1.2-1.056-1.676-3.807-1.848-6.288C887.7,433.7,889.221,436.07,889.476,437.95Z" transform="translate(-609.667 -289.693)"/><path class="h" d="M890.195,430.18a.806.806,0,0,1-.684.086c-3.252-.759-2.657-11.355-2.657-11.355a14.638,14.638,0,0,1,1.629,3.173C889.8,425.141,891.237,429.41,890.195,430.18Z" transform="translate(-609.957 -281.336)"/><path class="h" d="M905.924,432.82s.716,5.7-4.727,6.374l-.337-.63S905.565,434.593,905.924,432.82Z" transform="translate(-618.975 -290.264)"/><path class="h" d="M901.235,424.8c.043,6.124-3.842,8.867-3.842,8.867l-.125-.025L896,433.373c.251-1.88,1.791-4.247,3.116-6.02C900.24,425.867,901.235,424.8,901.235,424.8Z" transform="translate(-615.855 -285.116)"/><path class="c" d="M899.115,431.93c-.165,2.313-.587,4.859-1.615,6.052a2.453,2.453,0,0,1-.233.236L896,437.95C896.251,436.07,897.791,433.7,899.115,431.93Z" transform="translate(-615.855 -289.693)"/><path class="h" d="M895.86,429.625a2.015,2.015,0,0,1-.716.555h0a1.432,1.432,0,0,1-.265.086c-.8.19-1.074-.39-1.035-1.368a25.555,25.555,0,0,1,2.149-7.037,13.865,13.865,0,0,1,1.536-2.951S897.987,427.179,895.86,429.625Z" transform="translate(-614.469 -281.336)"/><path class="c" d="M892.847,435.867a.913.913,0,0,1-.516-.165c-1.529-.953-1.561-4.53-1.2-7.932C892.449,430.828,893.889,435.1,892.847,435.867Z" transform="translate(-612.609 -287.023)"/><path class="c" d="M895.866,434.914c-.176.38-.412.58-.716.555h0a1.075,1.075,0,0,1-.433-.165,2.344,2.344,0,0,1-.867-1.117A25.552,25.552,0,0,1,896,427.15C896.35,430.291,896.468,433.625,895.866,434.914Z" transform="translate(-614.475 -286.625)"/><path class="h" d="M893.042,408.53s-3.123,12.892,0,14.822S893.845,409.672,893.042,408.53Z" transform="translate(-613.066 -274.673)"/><path class="b" d="M778.316,416.96,778.1,418.1l-.8,4.179h-7.559l-.8-4.179-.219-1.139Z" transform="translate(-493.441 -267.647)"/><path class="c" d="M778.316,416.96,778.1,418.1h-9.15l-.219-1.139Z" transform="translate(-493.441 -267.647)"/><rect class="b" width="13.003" height="2.152" transform="translate(273.473 148.045)"/><path class="l" d="M930.137,499s25.7,16.115,20.075,42.041c-.458,2.116-.856,4.24-1.117,6.385-1.028,8.4-7.194,32.505-44.025,43.606v2.507l15.624-4.358,10.607-5.848,8.1-7.266L949.3,564l4.594-9.848,1.683-12.971.956-14.811-2.367-12.684-5.583-8.262-6.8-5.293Z" transform="translate(-621.677 -332.745)"/><path class="k" d="M311.9,549.01a56.587,56.587,0,0,0,5.794,37.8c18.482,33.526,57.759,23.66,69.347,19.857,2.757-.906,5.551-1.69,8.38-2.331l127.643-28.928c43.929-7.638,53-43.213,53-43.213,8.7-27.438,2.736-43.424-5.135-52.484a31.072,31.072,0,0,0-25.143-10.507l-15.141.8L396.056,484.69C333.14,485.364,316.335,525.411,311.9,549.01Zm12.466,1.615c4.244-20.29,20.888-49.719,74.421-51.535,2.457-.086,4.91-.3,7.348-.627L526.5,482.384l13.937-.716a29.828,29.828,0,0,1,26.382,13.074c5.543,8.34,8.541,21.486,1.683,41.923,0,0-8.39,31.055-49.014,37.726l-117.9,25.246c-2.682.573-5.332,1.275-7.95,2.084-10.693,3.3-46.249,11.674-63.521-16.444A47.555,47.555,0,0,1,324.363,550.625Z" transform="translate(-240.266 -313.587)"/></g></svg>